<?xml version="1.0" encoding="UTF-8"?>
<svg id="Layer_2" data-name="Layer 2" xmlns="http://www.w3.org/2000/svg" viewBox="0 0 119.57 78.02">
  <defs>
    <style>
      .cls-1, .cls-2 {
        fill: #fff;
      }

      .cls-1, .cls-3 {
        fill-rule: evenodd;
      }

      .cls-3 {
        fill: #4b877a;
      }

      .cls-4 {
        fill: #e6007e;
      }
    </style>
  </defs>
  <g id="Layer_1-2" data-name="Layer 1">
    <g>
      <path class="cls-1" d="M119,18.49c-1.25-2.07-3.85-2.07-4.7-2.07h-.19c-2.23.02-4.48.09-6.65.16-1.58.05-3.16.09-4.73.12-7.36.15-14.72.28-22.07.41-5.38.1-10.76.2-16.13.3-.38-.65-.89-1.23-1.53-1.74-.2-.16-.44-.31-.69-.44,1.06-.84,1.79-1.94,2.22-3.34.35-1.14.46-2.37.33-3.75-.09-.98-.21-2.21-.67-3.44-.02-.07-.05-.13-.08-.2-.71-1.57-2.02-3.73-5.28-4.34-.63-.12-1.21-.13-1.67-.14-.13,0-.25,0-.38-.01-.03,0-.2,0-.22,0-.94,0-1.86.23-2.75.68-2.46,1.25-4,3.41-4.58,6.42-.25,1.3-.04,2.49.11,3.35l.05.28c.02.1.04.19.06.29.36,1.38.88,2.39,1.82,3.49.12.14.26.28.41.4,0,0,.26.23.34.3.02.02.05.04.07.06-.08.07-.17.14-.25.22-.29.28-.58.56-.88.84-.69.65-1.4,1.32-2.08,2.1-1.45,1.64-2.88,3.32-4.26,4.94.87-2.2,1.27-4.68,1.12-7.11-.18-3.02-1.18-5.85-2.81-7.94-1.04-1.33-2.77-2.55-5.14-3.62-1.73-.78-3.66-1.35-5.75-1.69-1.43-.23-2.87-.36-4.21-.47-1.37-.11-2.86-.19-4.57-.27-1.88-.08-3.55-.14-5.12-.16-1.53-.21-3.19-.37-4.92-.49-.68-.04-1.36-.08-2.05-.1h-.13c-.17,0-.35-.01-.53-.01-.29,0-.58.01-.84.04-.01,0-.03,0-.04,0-.15.01-.43.03-.77.11-.83.18-1.58.57-2.17,1.12-1.71,1.57-2.3,3.04-2.86,4.47-.48,1.21-.91,2.41-1.32,3.69-.2.63-.4,1.26-.59,1.89-.17.54-.34,1.09-.51,1.63l-.99,3.1s-.04.09-.05.13c-.11.28-.4,1.02-.3,1.95l.03.36c.04.65.14,2.17,1.35,3.31.03.03.06.06.09.09,1.05.93,2.38,1.12,3.31,1.12.45,0,1.12-.05,1.79-.27.78-.26,1.45-.63,2.03-.98-.03.85-.05,1.73-.04,2.62l-.03.84c-.02.44,0,.84.03,1.17l.04.5c.02.21.04.42.05.63v.21c.03.27.05.55.07.83.01.17.02.35.02.52,0,.06,0,.11,0,.17v.46c.02.37.03.74.03,1.1,0,.04.01.43.01.43,0,.58,0,1.15.01,1.73,0,0,.03,1.6.03,1.94,0,.66,0,1.32-.03,1.99,0,.03,0,.09,0,.11,0,.11-.02.23-.03.35l-.12,1.55c-.13,1.64-.18,3.23-.21,4.58-.06,1.15-.15,2.3-.24,3.45-.04.48-.08.95-.13,1.42-.24,2.57-.49,5.23.15,8.11.35,1.58,1.22,3.04,2.53,4.22.62.56,1.43.87,2.27.87h.52c.5.26,1.04.39,1.59.39s1.08-.13,1.57-.38h.86c.17.35.39.68.68.97.64.64,1.51,1,2.4,1,.14,0,.27,0,.41-.02.11-.01.22-.02.34-.02.23,0,.44.03.62.08.3.08.61.13.92.13.02,0,.04,0,.05,0,.22,0,.44,0,.66-.02,1.36-.05,2.51-.89,3.01-2.07.15.19.33.38.53.53.61.49,1.36.75,2.13.75.24,0,.48-.03.73-.08,4.69-1.03,8.58-2.4,11.89-4.21,2.53-1.38,4.7-2.97,6.54-4.79,0,.22,0,.45.02.69.16,2.55,1.74,4.27,4.21,4.61.31.04.64.06,1.01.06.21,0,.42,0,.64-.02.12,0,.23-.01.39-.01.28.01.55.02.83.02,1.92,0,3.74-.25,5.5-.49.91-.12,1.76-.24,2.61-.32l6.02-.57c3.6-.35,4.53-2.59,4.76-3.9.44-2.47.72-4.51.89-6.41.13-1.58-.47-3.04-1.65-4.03-.87-.73-2.01-1.13-3.21-1.13-.25,0-.5.02-.75.05-.5.07-.92.2-1.23.3-.07.02-.14.05-.21.06-.03,0-1.41.38-2.08.57l-.02-.6c-.07-1.8-.14-3.61-.2-5.41-.04-1.02-.07-2.04-.11-3.05.11-.01.22-.03.33-.05.15-.02.31-.03.48-.04.34-.02.69-.03,1.03-.04.49,0,.98-.01,1.47-.01.44,0,.89,0,1.33,0,.87,0,1.73.02,2.6.03h.3s.01.05.02.07c.65,3.04,1.21,6.15,1.71,9.5.47,3.11.87,6.3,1.19,9l.25,2.11c.23,1.92.46,3.85.7,5.77.19,1.5,1.35,2.69,2.85,2.93.39.06.6.2.72.31.63.53,1.41.8,2.19.8.84,0,1.68-.31,2.33-.92.15-.14.32-.21.53-.22.87-.04,1.66-.41,2.23-.99v3.62s-.42,0-.42,0c-.16-.02-.31-.03-.47-.03-.33,0-.65.05-.97.14-.03,0-.1.02-.23.02-.27,0-.48-.08-.64-.23-.65-.62-1.5-.94-2.35-.94-.78,0-1.57.27-2.21.82-.09.08-.19.14-.3.19-1.39.63-2.19,2.12-1.95,3.64.12.75.25,1.49.38,2.24.03.16.08.35.13.5.26.81.75,2.31,2.05,3.21,1.07.74,2.32.83,3.3.83h.42c.64-.01,1.29-.02,1.93-.02.76,0,1.51,0,2.26.02.16,0,.34,0,.53,0,1.03,0,2.54-.11,3.78-1.01,1.65-1.21,2.02-3.23,2.18-4.09.49-2.69.85-5.41,1.2-8.04.11-.86.23-1.71.35-2.57.44-3.14.85-6.29,1.26-9.43.72-5.52,1.47-11.23,2.34-16.81.87-.02,1.74-.04,2.62-.06,1.97-.05,3.94-.09,5.9-.16h.19c.48-.02,1.03-.04,1.62-.12.53-.08,1.32-.24,2.1-.77.77-.53,1.22-1.2,1.49-1.67.3-.53.52-1.04.72-1.49l.07-.15c1.12-2.56,2.26-5.22,3.39-7.91.41-.98,1.37-3.27.19-5.23Z"/>
      <path class="cls-2" d="M89.76,57.5h-2.26c-1.65,0-3.02,1.17-3.33,2.73-.41.13-.8.31-1.18.53-.97-.52-2.07-.79-3.26-.79-1.28,0-2.45.31-3.46.89-1-.58-2.16-.88-3.42-.89-.29-.87-.93-1.61-1.81-2.01-.87-.4-1.87-.6-2.96-.6-1.55,0-2.97.58-4.01,1.64-.33.33-.6.71-.83,1.11-.47-.08-.96-.14-1.48-.14-1.16,0-2.31.22-3.34.64-.83-.41-1.77-.64-2.79-.65-.4,0-.79.04-1.16.1,0,0-.02-.02-.03-.03-1.35-1.37-3.26-2.13-5.37-2.13-1.01,0-1.95.16-2.79.48-1.07.41-1.96,1.07-2.64,1.99-.21.29-.38.59-.53.92-.29-.72-.73-1.38-1.31-1.93-.73-.67-2.01-1.46-4.03-1.46-.9,0-1.76.18-2.53.52-1,.45-1.81,1.17-2.35,2.06-.48-.26-1.03-.41-1.6-.41h-.47c-.36-1.49-1.7-2.59-3.3-2.59h-2.25c-1.56,0-2.86,1.06-3.26,2.5-.03,0-.05,0-.08,0-.09-.19-.2-.38-.33-.56-.64-.87-1.65-1.38-2.73-1.38h-2.64c-.38,0-.75.06-1.1.18-.36-.13-.74-.19-1.13-.19h-1.91c-.39,0-.77.07-1.13.19-.35-.12-.72-.18-1.1-.18h-2.75c-1.07,0-2.09.51-2.73,1.37-.64.86-.83,1.98-.52,3.01l2.36,7.81c.43,1.43,1.75,2.41,3.25,2.41h2.23c.45,0,.88-.09,1.28-.25.4.16.83.25,1.28.25h2.19c.67,0,1.3-.21,1.84-.55.91.44,1.95.67,3.05.67.9,0,1.75-.15,2.52-.44.43.2.9.31,1.4.31h2.25c.23,0,.46-.02.68-.07.22.05.45.07.68.07h2.44c.89,0,1.73-.35,2.35-.95,1.05.69,2.39,1.09,3.92,1.09.63,0,1.25-.07,1.83-.22.24.06.5.08.75.08h2.32c.85,0,1.65-.32,2.26-.86.4.22.81.41,1.25.56.92.31,1.9.46,2.92.46,1.26,0,2.44-.3,3.47-.84.04.02.07.05.11.07.94.5,1.98.75,3.09.75,1.04,0,1.98-.2,2.83-.57.65.31,1.48.54,2.5.54.43,0,.84-.04,1.24-.12.14.02.27.02.41.02h2.06c.22,0,.43-.02.63-.06.21.04.42.06.63.06h2.24c.63,0,1.22-.18,1.72-.48.88.4,1.87.62,2.92.62,1.27,0,2.44-.31,3.45-.89,1.01.58,2.17.89,3.45.89s2.35-.28,3.33-.82c.89.52,1.91.82,3.01.82.46,0,.9-.05,1.31-.14.07,0,.15,0,.23,0h2.18c1.88,0,3.39-1.52,3.39-3.39v-8.35c0-1.88-1.52-3.39-3.39-3.39Z"/>
      <g>
        <path class="cls-4" d="M85.65,66.36c0-.32.1-.58.3-.78.2-.2.43-.3.71-.3s.52.1.7.29c.18.2.28.46.28.79s-.09.59-.28.78c-.19.19-.42.29-.7.29-.59,0-1.01-.4-1.01-1.08M83.63,67.68c.41,1.14,1.37,1.7,2.42,1.7.7,0,1.21-.22,1.52-.67h.02s0,.54,0,.54h2.18v-8.35h-2.26v3.11s-.02,0-.02,0c-.32-.43-.83-.65-1.53-.65-.7,0-1.32.26-1.79.74-.23.25-.42.56-.55.95-.14.39-.21.83-.21,1.32s.07.93.22,1.32ZM78.79,66.37c0-.67.33-1.1.91-1.1.29,0,.52.1.69.31.17.21.25.47.25.79,0,.67-.33,1.08-.9,1.08s-.95-.43-.95-1.08ZM76.51,66.37c0,.89.29,1.61.89,2.17.59.56,1.36.84,2.31.84.95,0,1.72-.28,2.32-.84.59-.56.89-1.28.89-2.17s-.29-1.61-.88-2.17c-.59-.56-1.35-.84-2.29-.84s-1.73.28-2.33.84c-.6.56-.9,1.28-.9,2.17ZM71.89,66.37c0-.67.33-1.1.91-1.1.29,0,.52.1.69.31.17.21.25.47.25.79,0,.67-.33,1.08-.9,1.08s-.95-.43-.95-1.08ZM69.61,66.37c0,.89.29,1.61.89,2.17.59.56,1.36.84,2.31.84s1.72-.28,2.32-.84c.59-.56.89-1.28.89-2.17s-.29-1.61-.88-2.17c-.59-.56-1.35-.84-2.29-.84s-1.73.28-2.33.84c-.6.56-.9,1.28-.9,2.17ZM65.92,65.3v3.94h2.25v-3.94s.97,0,.97,0v-1.73h-1.03s0-.34,0-.34c0-.37.18-.57.53-.57.19,0,.4.06.64.17l.37-1.79c-.43-.19-.94-.29-1.55-.29-1.39,0-2.21,1.02-2.18,2.21v.52s-.65,0-.65,0v1.81h.65ZM60.93,67.44c0-.2.08-.35.23-.44.15-.09.33-.14.53-.14.32,0,.59.03.82.1v.14c0,.29-.09.51-.28.66-.19.15-.41.22-.65.22-.39,0-.64-.21-.64-.54ZM58.92,67.52c0,.6.19,1.06.56,1.37.37.3.85.46,1.45.46.7,0,1.24-.22,1.63-.68h.02s0,.58,0,.58h2.06v-3.61c0-.82-.3-1.43-.84-1.77-.54-.34-1.19-.49-2.03-.49-.95,0-1.91.25-2.61.66l.73,1.48c.62-.28,1.22-.43,1.77-.43s.84.17.84.51v.18c-.3-.07-.63-.11-1-.11-.49,0-.92.07-1.3.19-.76.26-1.28.84-1.28,1.67ZM54.97,65.9c.05-.53.25-.89.66-.89s.63.37.65.89h-1.3ZM52.69,66.37c0,1.22.54,2.18,1.42,2.65.44.23.94.35,1.5.35,1.12,0,1.94-.37,2.59-1.21l-1.35-1.04c-.27.4-.62.6-1.05.6-.5,0-.79-.31-.81-.82h3.46c0-.11.01-.24.01-.39,0-.61-.12-1.18-.4-1.73-.4-.81-1.19-1.41-2.42-1.41-.88,0-1.59.28-2.13.84-.55.57-.82,1.28-.82,2.16ZM45.62,68.22c.41.41.9.7,1.48.89.58.19,1.2.29,1.84.29.85,0,1.63-.22,2.22-.64.6-.41.96-1.11.96-1.96,0-.53-.2-1-.48-1.32-.14-.16-.32-.3-.52-.44-.41-.27-.77-.41-1.23-.56-.52-.17-.88-.3-1.08-.41-.21-.11-.31-.24-.31-.4,0-.3.25-.43.6-.43.54,0,1.05.23,1.54.69l1.38-1.5c-.67-.68-1.66-1.12-2.95-1.12-.6,0-1.13.09-1.59.26-.46.17-.83.45-1.1.82-.28.38-.42.84-.42,1.37.01.65.26,1.11.72,1.49.32.27.59.43,1.02.63.45.21.69.29,1.16.45.48.15.76.32.76.6s-.27.43-.72.43c-.31,0-.63-.07-.95-.19-.33-.13-.6-.3-.82-.52l-1.53,1.57ZM27.54,69.24v-1.43s.33-.37.33-.37l1.03,1.79h2.44s-2-3.48-2-3.48l1.97-2.27h-2.52s-1.25,1.52-1.25,1.52v-4.11h-2.25v8.35h2.25ZM20.45,66.37c0-.67.33-1.1.91-1.1.29,0,.52.1.69.31.17.21.25.47.25.79,0,.67-.33,1.08-.9,1.08s-.95-.43-.95-1.08ZM18.17,66.37c0,.89.29,1.61.89,2.17.59.56,1.36.84,2.31.84s1.72-.28,2.32-.84c.59-.56.89-1.28.89-2.17s-.29-1.61-.88-2.17c-.59-.56-1.35-.84-2.29-.84-.95,0-1.73.28-2.33.84-.6.56-.9,1.28-.9,2.17ZM9.49,69.25h2.23s1.28-3.96,1.28-3.96h.03s1.26,3.96,1.26,3.96h2.19s2.42-7.81,2.42-7.81h-2.64s-.99,3.74-.99,3.74h-.02s-1.21-3.76-1.21-3.76h-1.91s-1.21,3.66-1.21,3.66h-.02s-1-3.65-1-3.65h-2.75s2.36,7.81,2.36,7.81Z"/>
        <path class="cls-4" d="M37.35,63.41c0-.29.17-.5.42-.5s.39.19.39.49c0,.26-.2.55-.47.74-.23-.28-.35-.52-.35-.73M36.96,67.03c0-.35.15-.56.41-.8l1.18,1.27c-.23.12-.48.18-.72.18-.22,0-.42-.05-.6-.16-.18-.1-.27-.27-.27-.49ZM34.72,67.25c0,1.51,1.3,2.13,2.89,2.13.8,0,1.52-.2,2.15-.6l.43.47h2.32s-1.53-1.61-1.53-1.61c.63-.78,1-1.64,1.12-2.58h-1.9c-.08.45-.25.87-.48,1.25l-.9-.96c.38-.25.69-.55.94-.89.24-.34.37-.7.37-1.08,0-.62-.21-1.12-.61-1.5-.41-.37-.99-.57-1.73-.57-.42,0-.8.08-1.14.23-.68.3-1.14.96-1.14,1.82,0,.54.24,1.09.72,1.64-.43.28-.73.53-1.04.9-.3.37-.47.84-.47,1.36Z"/>
      </g>
      <path class="cls-3" d="M26.31,24.14l-.17.02h-.04c-.88-.06-1.88-.15-2.54-.81-.72-.71-.91-2.01-1.03-2.97-.11-.81-.16-1.62-.2-2.44-.03-.51-.05-1.02-.09-1.53-.08-.99-.21-2.51.77-3.11.32-.21.71-.26,1.08-.26h.02s.01,0,.01,0c1.15.05,2.86,1.04,3.89,1.61.27.15.53.3.8.45.78.42,1.41,1.13,2,1.77h0s.11.12.11.12c.76.84,1.5,1.88,1.8,2.98.25.93.17,1.87-.43,2.65-.77.98-2.17,1.38-3.36,1.5h-.03s-.03,0-.03,0c-.85-.01-1.7,0-2.55.01M45.88,31.06c.52.01,1.01-.28,1.41-.58,1.28-.96,2.53-1.95,3.8-2.93l.87-.67v1.1c0,.75,0,1.5,0,2.25-.01,2.86-.03,5.72-.04,8.59v2.64s-1.04-2.43-1.04-2.43c-.58-1.36-1.43-2.62-2.36-3.75-.95-1.15-1.95-2.26-3.03-3.29l-1.01-.97,1.4.03ZM24.97,51.33c-.64-.45-.73-1.36-.75-2.08-.05-2.81-.1-5.62-.15-8.43l-.08-5.31c0-.56.03-1.51.62-1.81l.03-.02h.04c.12-.05.24-.07.37-.07.62,0,1.47.43,2,.72,1.78.97,3.75,2.06,5.24,3.46,1.41,1.33,2.26,2.84,2.52,4.77.05.33.06.67.05,1,0,.17-.03.34-.04.51-.05.7-.12,1.42-.35,2.08-1.13,3.28-3.6,4.88-6.94,5.38-.74.11-1.91.27-2.56-.2ZM82.33,72.88c.14.43.39,1.24.76,1.49.38.26,1.31.23,1.75.23,1.44-.02,2.88-.02,4.32.01.63.02,1.69.04,2.22-.35.54-.39.73-1.35.84-1.96.63-3.47,1.04-6.98,1.53-10.47,1.22-8.79,2.26-17.61,3.62-26.39.12-.78.37-1.55.57-2.32l.1-.39h.41c3.55-.12,7.11-.17,10.66-.29.47-.02.98-.02,1.44-.09.23-.03.48-.08.67-.22.19-.13.34-.35.45-.55.24-.41.43-.88.63-1.32,1.14-2.61,2.26-5.23,3.37-7.86.18-.44.7-1.69.42-2.16-.27-.44-1.52-.44-1.95-.44-3.79.04-7.57.2-11.35.28-13.44.27-26.88.49-40.31.75h-.52s-.03-.51-.03-.51c-.05-.87-.38-1.48-1.06-2.02-.59-.47-2.43-.74-3.17-.81-.71-.07-2.59-.17-3.22.18h-.01s-.01.01-.01.01c-.1.05-.19.13-.27.21-.93.92-1.93,1.79-2.8,2.77-2.13,2.41-4.2,4.88-6.29,7.32-.25.29-.53.57-.74.88-.14.22-.25.48-.26.75l-.04,1.05-.83-.65c-1.36-1.05-2.81-1.97-4.35-2.72l-.72-.35.6-.54c.12-.11.25-.22.37-.34.22-.34.45-.68.68-1.02.41-.6.78-1.16,1.12-1.81,1.08-2.06,1.55-4.47,1.41-6.79-.13-2.13-.78-4.36-2.1-6.06-.87-1.11-2.59-2.04-3.86-2.61-1.54-.69-3.25-1.16-4.91-1.44-1.29-.21-2.62-.33-3.92-.43-1.48-.12-2.97-.2-4.46-.26-1.73-.08-3.46-.14-5.19-.16h-.03s-.03,0-.03,0c-1.61-.22-3.24-.38-4.86-.49-.64-.04-1.27-.08-1.91-.09-.32,0-.72-.03-1.03,0-.15.02-.29.02-.46.05-.23.05-.44.15-.61.3-1.11,1.02-1.46,1.84-2.01,3.22-.46,1.15-.87,2.3-1.25,3.47-.38,1.17-.73,2.34-1.1,3.51l-1.02,3.2c-.02.08-.05.15-.09.23-.04.1-.1.25-.09.35.02.14.03.28.04.42h0s0,.01,0,.01c.02.34.04.91.31,1.16.37.32,1.33.33,1.76.18.72-.24,1.37-.67,2-1.07l.39-.24c.23-.14.41-.3.61-.48.24-.21.46-.41.72-.59l.7-.57c.29-.28.63-.68.96-.88.33-.2.72-.19.97.13.18.24.2.57.18.86.05,1.38.05,2.75,0,4.13-.04,1.21-.08,2.39-.07,3.6h0s-.03.92-.03.92h0c-.01.27,0,.53.02.8.03.39.07.77.1,1.15.03.36.05.72.07,1.08.02.27.03.55.02.83,0,.54.03,1.08.03,1.62v.37s.01,0,.01,0c0,.58,0,1.16.01,1.74,0,.65.03,1.3.03,1.94,0,.72,0,1.43-.03,2.15,0,.27-.04.58-.06.85-.03.43-.07.87-.1,1.3-.12,1.49-.17,2.95-.2,4.44h0s0,.02,0,.02c-.06,1.2-.16,2.39-.25,3.58-.23,2.86-.68,5.67-.05,8.52.21.96.77,1.78,1.49,2.43h.99c.43,0,.82.14,1.12.39.3-.24.69-.38,1.11-.38h2.64c.58,0,1.08.25,1.42.72.28.37.39.8.34,1.24.24-.03.49-.04.75-.04.53,0,1.05.07,1.53.2.2,0,.39,0,.59-.02v-.89c0-.97.79-1.77,1.77-1.77h2.25c.97,0,1.77.79,1.77,1.77v.1c3.78-.83,7.59-2.01,10.99-3.87,4.85-2.64,8.46-6.29,10.57-11.41l1.05-2.57v2.77c-.02,2.84-.03,5.68-.04,8.53h0s0,.01,0,.01c-.01.44-.03.89,0,1.33.06.91.37,1.34,1.29,1.47.54.07,1.12,0,1.67,0h0s0,0,0,0c2.85.12,5.68-.51,8.5-.78,2.01-.19,4.01-.38,6.02-.57.77-.07,1.58-.23,1.74-1.11.36-2.02.67-4.06.85-6.1.04-.44-.1-.85-.44-1.13-.37-.3-.87-.39-1.33-.32-.36.05-.74.21-1.1.29-1.82.49-3.63,1-5.45,1.49l-.66.18-.02-.68c-.12-3.21-.25-6.41-.36-9.61-.09-2.48-.18-4.96-.28-7.44l-.07-1.91,1.27,1.9c.56.84,1.15,1.05,2.14.88.27-.04.56-.06.83-.08.38-.02.77-.03,1.16-.04.96-.02,1.93-.02,2.89,0,.96,0,1.93.02,2.89.04.65.01,1.3.03,1.94.03h.38s.13.35.13.35c.29.79.7,1.55.87,2.38.68,3.22,1.26,6.45,1.75,9.7.46,3.03.84,6.06,1.2,9.1.32,2.62.62,5.24.95,7.85.88.14,1.69.48,2.38,1.07.74-.7,1.68-1.09,2.7-1.14v-.7c0-.97.79-1.77,1.77-1.77h2.26c.97,0,1.77.79,1.77,1.77v8.35c0,.97-.79,1.77-1.77,1.77h-2.18c-.11,0-.23-.01-.34-.03-.38.11-.78.17-1.2.17-1.16,0-2.2-.42-2.98-1.17-.34.29-.71.53-1.11.71.12.73.24,1.47.37,2.2ZM56.59,3.4c-.45,0-.86.11-1.27.31-1.65.84-2.45,2.27-2.79,4.04-.15.79.04,1.64.17,2.42.23.9.52,1.44,1.11,2.13.12.1.24.22.37.32.21.17.42.34.64.49.21.1.42.22.64.29.22.08.47.14.7.19.37.07,1.12.03,1.47-.05h.01s.01,0,.01,0c.45-.09.81-.15,1.25-.31,1.22-.44,1.97-1.09,2.36-2.35.24-.79.27-1.62.19-2.44-.08-.85-.16-1.76-.47-2.56-.62-1.38-1.31-2.11-2.81-2.39-.51-.1-1.08-.07-1.6-.1Z"/>
    </g>
  </g>
</svg>