<?xml version="1.0" encoding="UTF-8"?>
<svg id="Layer_2" data-name="Layer 2" xmlns="http://www.w3.org/2000/svg" xmlns:xlink="http://www.w3.org/1999/xlink" viewBox="0 0 1664.98 711.36">
  <defs>
    <style>
      .cls-1 {
        fill: #4ca706;
      }

      .cls-1, .cls-2, .cls-3 {
        fill-rule: evenodd;
      }

      .cls-2 {
        fill: #508041;
      }

      .cls-3 {
        fill: url(#linear-gradient);
      }

      .cls-4 {
        fill: #989898;
      }
    </style>
    <linearGradient id="linear-gradient" x1="0" y1="355.68" x2="532.92" y2="355.68" gradientUnits="userSpaceOnUse">
      <stop offset="0" stop-color="#818386"/>
      <stop offset="1" stop-color="#c0c2c3"/>
    </linearGradient>
  </defs>
  <g id="Layer_4" data-name="Layer 4">
    <g>
      <path class="cls-1" d="M779.98,271.68h-341.86v264.44c0,48.49,22.88,68.88,84.98,68.88h343.4l-86.52-73.39h-242.24v-56.4h241.75v-66.57h-241.75v-62.26h242.24v-74.71M1153.35,272.07l-343.19-.4v240.69l97.7,79.83v-245.81h238.02v63.69h-210.49l179.36,194.92h125.72c-42.23-42.94-84.46-85.88-126.67-128.83h52.79c48.78,0,64.58-21.6,63.11-70.68v-67.24c0-56.9-24.02-66.18-76.34-66.18ZM1207.77,528.45c47.57-83.81,99.3-172.96,146.86-256.77h52.97c74.14,0,90.02,23.91,108.57,58.21l148.81,275.11h-118.78c-13.18-22.84-26.36-45.67-39.55-68.5h-147.22c16.43-30.92,32.86-61.83,49.3-92.75h54.6c-13.23-27.24-26.46-54.49-39.69-81.74-46.33,80.24-95.17,163-141.49,243.24l-74.37-76.81Z"/>
      <polygon class="cls-1" points="201.9 247.42 195.18 95.99 0 398.34 201.9 247.42"/>
      <polygon class="cls-3" points="0 398.34 216.01 711.36 532.92 0 0 398.34"/>
      <path class="cls-4" d="M1408.13,225.74h-34.16l17.08-28.88,17.08,28.88ZM1356.55,242.12h7.8l6.32-10.75h40.76l6.32,10.75h7.8l-30.22-50.88h-8.57l-30.22,50.88ZM1301.74,228.98c0,9.56,4.7,13.7,16.79,13.7h13.07c12.51,0,17.57-3.09,17.57-14.83v-36.61h-6.89v37.95c0,6.54-3.3,7.87-11.24,7.87h-12.02c-8.86,0-10.82-1.69-10.82-9.7v-4.01h-6.46v5.62ZM1229.84,242.12h6.89v-44.7l46.59,44.7h10.26v-50.88h-6.89v44.69l-46.6-44.69h-10.26v50.88ZM1152.54,223.64c0,12.86,4.36,19.04,18.13,19.04h29.31c13.78,0,18.13-6.18,18.13-19.04v-13.92c0-12.86-4.36-19.04-18.13-19.04h-29.31c-13.77,0-18.13,6.18-18.13,19.04v13.92ZM1211.22,226.24c0,8.85-5.34,10.82-11.95,10.82h-27.9c-6.6,0-11.94-1.97-11.94-10.82v-19.12c0-8.85,5.34-10.82,11.94-10.82h27.9c6.6,0,11.95,1.97,11.95,10.82v19.12ZM1090.98,216.4v-19.54h31.34c10.12,0,12.58,1.83,12.58,7.52v4.64c0,5.34-3.24,7.38-10.89,7.38h-33.03ZM1084.09,242.12h6.89v-20.1h33.59c6.25,0,10.12.99,10.12,8.93v11.17h6.47v-13c0-4.64-1.69-8.29-8.71-9.55v-.14c5.27-.49,9.34-2.46,9.34-9.63v-4.14c0-9.56-2.32-14.41-17-14.41h-40.69v50.88ZM1015.15,242.12h6.89v-23.68h8.08l34.93,23.68h12.09l.14-.14-39.77-26.29,36.47-24.32-.14-.14h-11.24l-31.9,21.57h-8.64v-21.57h-6.89v50.88ZM941.93,242.12h6.88v-23.4h45.96v23.4h6.89v-50.88h-6.89v21.85h-45.96v-21.85h-6.88v50.88ZM871.31,229.82c0,11.1,8.85,12.86,18.9,12.86h19.12c10.19,0,20.44-.91,20.44-13.42v-3.3c0-8.64-5.61-12.51-19.04-12.51h-20.38c-10.75,0-12.65-2.04-12.65-8.08,0-8.36,4.71-9.07,17.99-9.07h7.31c18.06,0,18.91,1.48,19.04,9.56h6.47v-1.76c0-9.06-4.29-13.42-21.36-13.42h-14.83c-14.2,0-21.08,2.6-21.08,14.19,0,13.49,6.89,14.76,27.9,14.76h13.08c8.57,0,11.1,1.62,11.1,8.01,0,7.31-2.95,9.42-12.93,9.42h-21.37c-8.57,0-11.24-2.39-11.24-7.38v-3.58h-6.46v3.72ZM856.12,209.23c0,5.27-3.23,7.24-8.71,7.24h-33.94v-19.61h33.38c5.97,0,9.27,1.48,9.27,7.52v4.85ZM806.58,242.12h6.89v-20.03h33.66c14.96,0,15.88-5.69,15.88-17.01,0-11.87-5.27-13.84-14.55-13.84h-41.89v50.88ZM762.52,242.12h6.89v-21.51l29.17-29.37h-9.28l-23.33,23.61-23.33-23.61h-9.28l29.16,29.37v21.51ZM698.29,242.12h6.89v-45.26h25.72v-5.62h-58.32v5.62h25.72v45.26ZM604.89,242.12h6.89v-23.4h45.96v23.4h6.88v-50.88h-6.88v21.85h-45.96v-21.85h-6.89v50.88ZM534.27,229.82c0,11.1,8.85,12.86,18.9,12.86h19.11c10.19,0,20.45-.91,20.45-13.42v-3.3c0-8.64-5.62-12.51-19.04-12.51h-20.38c-10.75,0-12.65-2.04-12.65-8.08,0-8.36,4.71-9.07,17.99-9.07h7.31c18.06,0,18.9,1.48,19.04,9.56h6.47v-1.76c0-9.06-4.29-13.42-21.36-13.42h-14.83c-14.2,0-21.09,2.6-21.09,14.19,0,13.49,6.89,14.76,27.91,14.76h13.07c8.57,0,11.1,1.62,11.1,8.01,0,7.31-2.95,9.42-12.93,9.42h-21.36c-8.57,0-11.24-2.39-11.24-7.38v-3.58h-6.47v3.72Z"/>
      <polygon class="cls-2" points="201.91 247.42 199.42 191.49 0 398.34 201.91 247.42"/>
    </g>
  </g>
</svg>