<?xml version="1.0" encoding="UTF-8"?>
<svg id="Layer_1" data-name="Layer 1" xmlns="http://www.w3.org/2000/svg" xmlns:xlink="http://www.w3.org/1999/xlink" viewBox="0 0 215.29 176.94">
  <defs>
    <style>
      .cls-1 {
        fill: url(#linear-gradient-8);
      }

      .cls-2 {
        fill: url(#linear-gradient-7);
      }

      .cls-3 {
        fill: url(#linear-gradient-5);
      }

      .cls-4 {
        fill: url(#linear-gradient-6);
      }

      .cls-5 {
        fill: url(#linear-gradient-9);
      }

      .cls-6 {
        fill: url(#linear-gradient-4);
      }

      .cls-7 {
        fill: url(#linear-gradient-3);
      }

      .cls-8 {
        fill: url(#linear-gradient-2);
      }

      .cls-9 {
        fill: url(#New_Gradient_Swatch);
      }

      .cls-10 {
        fill: url(#linear-gradient);
      }

      .cls-11 {
        clip-path: url(#clippath-17);
      }

      .cls-12 {
        clip-path: url(#clippath-19);
      }

      .cls-13 {
        clip-path: url(#clippath-11);
      }

      .cls-14 {
        clip-path: url(#clippath-16);
      }

      .cls-15 {
        clip-path: url(#clippath-18);
      }

      .cls-16 {
        clip-path: url(#clippath-10);
      }

      .cls-17 {
        clip-path: url(#clippath-15);
      }

      .cls-18 {
        clip-path: url(#clippath-13);
      }

      .cls-19 {
        clip-path: url(#clippath-14);
      }

      .cls-20 {
        clip-path: url(#clippath-12);
      }

      .cls-21 {
        clip-path: url(#clippath-20);
      }

      .cls-22 {
        clip-path: url(#clippath-21);
      }

      .cls-23 {
        clip-path: url(#clippath-1);
      }

      .cls-24 {
        clip-path: url(#clippath-3);
      }

      .cls-25 {
        clip-path: url(#clippath-4);
      }

      .cls-26 {
        clip-path: url(#clippath-2);
      }

      .cls-27 {
        clip-path: url(#clippath-7);
      }

      .cls-28 {
        clip-path: url(#clippath-6);
      }

      .cls-29 {
        clip-path: url(#clippath-9);
      }

      .cls-30 {
        clip-path: url(#clippath-8);
      }

      .cls-31 {
        clip-path: url(#clippath-5);
      }

      .cls-32 {
        clip-rule: evenodd;
        fill: none;
      }

      .cls-33 {
        fill: url(#linear-gradient-10);
      }

      .cls-34 {
        fill: url(#linear-gradient-11);
      }

      .cls-35 {
        fill: url(#linear-gradient-12);
      }

      .cls-36 {
        fill: url(#linear-gradient-13);
      }

      .cls-37 {
        fill: url(#linear-gradient-19);
      }

      .cls-38 {
        fill: url(#linear-gradient-14);
      }

      .cls-39 {
        fill: url(#linear-gradient-20);
      }

      .cls-40 {
        fill: url(#linear-gradient-15);
      }

      .cls-41 {
        fill: url(#linear-gradient-16);
      }

      .cls-42 {
        fill: url(#linear-gradient-17);
      }

      .cls-43 {
        fill: url(#linear-gradient-18);
      }

      .cls-44 {
        fill: #50b8e9;
      }

      .cls-45 {
        fill: url(#New_Gradient_Swatch_copy);
      }

      .cls-46 {
        clip-path: url(#clippath);
      }
    </style>
    <clipPath id="clippath">
      <path class="cls-32" d="M99.96,114.25c-.2,0-.36.17-.36.37s.16.36.36.36h1.48v4.01c0,.2.16.37.37.37s.36-.16.36-.37v-4.01h1.48c.2,0,.37-.16.37-.36s-.16-.37-.37-.37h-3.7Z"/>
    </clipPath>
    <linearGradient id="linear-gradient" x1="106.48" y1="118.93" x2="133.69" y2="131.24" gradientUnits="userSpaceOnUse">
      <stop offset="0" stop-color="#5ba494"/>
      <stop offset="1" stop-color="#a8d3af"/>
    </linearGradient>
    <clipPath id="clippath-1">
      <path class="cls-32" d="M109.4,119h0c0-.1-.05-.23-.12-.29-.04-.02-.07-.04-.07-.12v-3.55c0-.08.03-.1.07-.12.08-.05.12-.19.12-.28h0c0-.23-.17-.38-.37-.38-.32,0-.55.23-.55.56v1.69h-2.81v-1.69c0-.33-.23-.56-.55-.56-.2,0-.37.15-.37.37,0,.09.04.23.12.29.04.02.07.04.07.12v3.55c0,.08-.03.1-.07.12-.08.05-.12.19-.12.29,0,.23.17.37.37.37.32,0,.55-.23.55-.56v-1.58h2.81v1.58c0,.33.23.56.55.56.2,0,.37-.15.37-.37"/>
    </clipPath>
    <linearGradient id="linear-gradient-2" x1="107.37" y1="116.95" x2="134.58" y2="129.26" xlink:href="#linear-gradient"/>
    <clipPath id="clippath-2">
      <path class="cls-32" d="M110.85,119.37h2.97c.47,0,.46-.74,0-.74h-2.48s.06-.05.06-.15v-1.24h1.88c.46,0,.48-.73,0-.73h-1.88v-1.37c0-.1-.06-.15-.06-.15h2.34c.2,0,.37-.16.37-.36s-.17-.37-.37-.37h-2.84c-.2,0-.39.17-.39.37,0,.13.07.24.16.31.04.03.05.07.05.12v3.52c0,.06,0,.1-.05.12-.09.07-.16.18-.16.31,0,.2.18.37.39.37"/>
    </clipPath>
    <linearGradient id="linear-gradient-3" x1="108.36" y1="114.94" x2="134.68" y2="127.23" xlink:href="#linear-gradient"/>
    <clipPath id="clippath-3">
      <path class="cls-32" d="M115.99,115.14c0-.1-.06-.15-.06-.15h1.38c.43,0,.77.34.77.77s-.34.78-.77.78h-1.32v-1.4ZM115.43,114.25c-.2,0-.39.17-.39.37,0,.13.07.24.16.31.04.03.05.07.05.12v3.53c0,.08-.03.1-.07.12-.08.04-.14.15-.14.28,0,.23.18.39.39.39.32,0,.55-.23.55-.56v-1.53h1.1l1.02,1.77c.1.17.27.32.53.32.21,0,.42-.15.42-.38,0-.13-.05-.23-.16-.29-.09-.05-.15,0-.2-.07l-.83-1.45c.56-.23.94-.77.94-1.41,0-.84-.67-1.51-1.51-1.51h-1.88Z"/>
    </clipPath>
    <linearGradient id="linear-gradient-4" x1="109.07" y1="113.2" x2="136.27" y2="125.5" xlink:href="#linear-gradient"/>
    <clipPath id="clippath-4">
      <path class="cls-32" d="M124.69,114.56l-1.96,3.15-1.97-3.15c-.11-.17-.29-.31-.5-.31s-.37.16-.37.37c0,.12.07.25.16.31.04.02.05.07.05.1v3.55c0,.08-.03.1-.07.12-.1.08-.12.19-.12.29,0,.23.17.38.37.38.32,0,.55-.23.55-.56v-2.3l-.02-.4h0l.2.4,1.38,2.14c.15.26.5.25.65,0l1.38-2.14.2-.4h0l-.02.4v2.3c0,.33.23.56.55.56.2,0,.39-.16.39-.39,0-.1-.04-.22-.14-.28-.04-.02-.07-.04-.07-.12v-3.55s.01-.08.05-.1c.09-.06.16-.18.16-.31,0-.2-.17-.37-.37-.37s-.39.13-.5.31"/>
    </clipPath>
    <linearGradient id="linear-gradient-5" x1="110.03" y1="111.07" x2="137.24" y2="123.37" xlink:href="#linear-gradient"/>
    <clipPath id="clippath-5">
      <path class="cls-32" d="M128.42,115.65l.15-.51h0l.15.5.64,1.75h-1.56l.63-1.75ZM128.18,114.4l-1.4,3.77-.14.36c-.03.07-.07.08-.11.09-.15.02-.25.2-.25.35,0,.25.19.4.46.4.22,0,.41-.14.5-.37l.37-.96h1.93l.37.96c.09.23.28.37.51.37.26,0,.45-.15.45-.39,0-.18-.09-.35-.25-.37-.04,0-.08-.01-.11-.09l-1.54-4.13c-.07-.18-.23-.27-.39-.27s-.33.09-.39.27Z"/>
    </clipPath>
    <linearGradient id="linear-gradient-6" x1="111.07" y1="108.83" x2="138.25" y2="121.14" xlink:href="#linear-gradient"/>
    <clipPath id="clippath-6">
      <path class="cls-32" d="M131.95,119.37h2.74c.2,0,.36-.16.37-.37,0-.23-.17-.37-.37-.37h-2.24s.06-.05.06-.15v-3.68c0-.33-.21-.55-.53-.55-.21,0-.39.15-.39.37,0,.09.03.22.12.29.04.02.07.04.07.12v3.54c0,.06,0,.1-.05.12-.09.07-.16.18-.16.31,0,.2.18.37.39.37"/>
    </clipPath>
    <linearGradient id="linear-gradient-7" x1="111.86" y1="107.09" x2="139.02" y2="119.4" xlink:href="#linear-gradient"/>
    <clipPath id="clippath-7">
      <path class="cls-32" d="M139.06,115.14c0-.1-.06-.15-.06-.15h1.38c.43,0,.77.34.77.77s-.34.78-.77.78h-1.32v-1.4ZM138.5,114.25c-.2,0-.39.17-.39.37,0,.13.07.24.16.31.04.03.05.07.05.12v3.53c0,.08-.03.1-.07.12-.08.04-.14.15-.14.28,0,.23.18.39.39.39.32,0,.55-.23.55-.56v-1.53h1.1l1.02,1.77c.1.17.27.32.53.32.21,0,.42-.15.42-.38,0-.13-.05-.23-.16-.29-.09-.05-.15,0-.2-.07l-.83-1.45c.56-.23.94-.77.94-1.41,0-.84-.67-1.51-1.51-1.51h-1.88Z"/>
    </clipPath>
    <linearGradient id="linear-gradient-8" x1="112.98" y1="104.55" x2="140.19" y2="116.84" xlink:href="#linear-gradient"/>
    <clipPath id="clippath-8">
      <path class="cls-32" d="M143.36,119.37h2.97c.47,0,.46-.74,0-.74h-2.48s.06-.05.06-.15v-1.24h1.88c.46,0,.47-.73,0-.73h-1.88v-1.37c0-.1-.06-.15-.06-.15h2.34c.2,0,.37-.16.37-.36s-.17-.37-.37-.37h-2.84c-.2,0-.39.17-.39.37,0,.13.07.24.16.31.04.03.05.07.05.12v3.52c0,.06,0,.1-.05.12-.09.07-.16.18-.16.31,0,.2.18.37.39.37"/>
    </clipPath>
    <linearGradient id="linear-gradient-9" x1="114.74" y1="102.72" x2="141.08" y2="115.03" xlink:href="#linear-gradient"/>
    <clipPath id="clippath-9">
      <path class="cls-32" d="M147.33,115.57c0,1.02.8,1.32,1.6,1.6.41.14,1.15.35,1.15.88,0,.39-.51.66-1.13.66-.37,0-.72-.12-.98-.3-.09-.07-.19-.09-.26-.09-.2,0-.34.16-.34.34,0,.09.02.19.11.28.39.37.95.5,1.48.5.77,0,1.85-.37,1.85-1.41,0-.97-.91-1.29-1.61-1.53-.55-.2-1.15-.43-1.15-.93,0-.37.47-.66,1.02-.66.39,0,.67.11.93.3.07.05.14.07.21.07.2,0,.37-.18.37-.37,0-.09-.04-.19-.13-.28-.37-.34-.88-.46-1.38-.46-.91,0-1.75.56-1.75,1.39"/>
    </clipPath>
    <linearGradient id="linear-gradient-10" x1="114.5" y1="101.19" x2="141.71" y2="113.49" xlink:href="#linear-gradient"/>
    <clipPath id="clippath-10">
      <path class="cls-32" d="M152.16,116.81c0-1.03.85-1.89,1.88-1.89s1.9.85,1.9,1.89-.85,1.89-1.89,1.89-1.89-.85-1.89-1.89M151.41,116.81c0,1.37,1.07,2.64,2.64,2.64,1.42,0,2.62-1.21,2.62-2.64s-1.21-2.62-2.62-2.62-2.64,1.21-2.64,2.62Z"/>
    </clipPath>
    <linearGradient id="linear-gradient-11" x1="115.34" y1="99.33" x2="142.56" y2="111.62" xlink:href="#linear-gradient"/>
    <clipPath id="clippath-11">
      <path class="cls-32" d="M158.42,115.14c0-.1-.06-.15-.06-.15h1.38c.43,0,.78.34.78.77s-.34.78-.78.78h-1.32v-1.4ZM157.86,114.25c-.2,0-.39.17-.39.37,0,.13.07.24.16.31.04.03.05.07.05.12v3.53c0,.08-.03.1-.07.12-.08.04-.14.15-.14.28,0,.23.18.39.39.39.32,0,.55-.23.55-.56v-1.53h1.1l1.02,1.77c.1.17.27.32.53.32.21,0,.42-.15.42-.38,0-.13-.05-.23-.16-.29-.09-.05-.15,0-.2-.07l-.83-1.45c.56-.23.94-.77.94-1.41,0-.84-.67-1.51-1.51-1.51h-1.88Z"/>
    </clipPath>
    <linearGradient id="linear-gradient-12" x1="116.27" y1="97.28" x2="143.47" y2="109.58" xlink:href="#linear-gradient"/>
    <clipPath id="clippath-12">
      <path class="cls-32" d="M162,114.25c-.2,0-.36.17-.36.37s.16.36.36.36h1.48v4.01c0,.2.16.37.37.37s.37-.16.37-.37v-4.01h1.48c.2,0,.37-.16.37-.36s-.16-.37-.37-.37h-3.7Z"/>
    </clipPath>
    <linearGradient id="linear-gradient-13" x1="117" y1="95.65" x2="144.22" y2="107.95" xlink:href="#linear-gradient"/>
    <clipPath id="clippath-13">
      <polygon class="cls-32" points="132.86 62.45 133.19 62.45 132.86 62.45 133.52 62.45 133.19 62.45 133.51 62.45 132.86 62.45"/>
    </clipPath>
    <linearGradient id="linear-gradient-14" x1="133.28" y1="62.45" x2="133.15" y2="62.45" xlink:href="#linear-gradient"/>
    <clipPath id="clippath-14">
      <path class="cls-32" d="M153.9,54.38v2.07c0,1.78-.72,3.4-1.89,4.57-1.17,1.17-2.79,1.9-4.57,1.9h0s-12.88,0-12.88,0c-.44,0-.84.18-1.13.47-.29.29-.47.69-.47,1.13h0s0,0,0,0c0,.44.18.84.47,1.13.29.29.69.47,1.13.47h0s12.88,0,12.88,0h0s0,0,0,0h0c2.66,0,5.08-1.08,6.82-2.83,1.75-1.75,2.83-4.16,2.83-6.82h0v-2.07h-3.19Z"/>
    </clipPath>
    <linearGradient id="linear-gradient-15" x1="147.26" y1="54.1" x2="142.29" y2="67.8" xlink:href="#linear-gradient"/>
    <clipPath id="clippath-15">
      <path class="cls-32" d="M157.56,54.38v2.07h0c0,2.79-1.14,5.32-2.97,7.16-1.83,1.83-4.37,2.97-7.16,2.97h0s0,0,0,0h-9.73c-.44,0-.84.18-1.13.47-.29.29-.47.69-.47,1.13h0s0,0,0,0c0,.44.18.84.47,1.13.29.29.69.47,1.13.47h0s0,0,0,0h9.72c3.67,0,7-1.49,9.41-3.9,2.41-2.41,3.9-5.74,3.9-9.41v-2.07h-3.19Z"/>
    </clipPath>
    <linearGradient id="linear-gradient-16" x1="150.66" y1="54.19" x2="145.59" y2="72.18" xlink:href="#linear-gradient"/>
    <clipPath id="clippath-16">
      <path class="cls-32" d="M131.26,60.85h0s0,0,0,0c0,.44.18.84.47,1.13.29.29,1.35.47,1.79.47h0,13.93c1.65,0,3.15-.67,4.23-1.75,1.08-1.08,1.76-2.58,1.76-4.23v-2.07h-3.19v2.07c0,.77-.31,1.47-.82,1.98-.51.51-1.21.82-1.98.82h-14.58c-.44,0-.84.18-1.13.47-.29.29-.47.69-.47,1.13h0Z"/>
    </clipPath>
    <linearGradient id="New_Gradient_Swatch_copy" data-name="New Gradient Swatch copy" x1="144.47" y1="54.03" x2="139.91" y2="63.45" gradientUnits="userSpaceOnUse">
      <stop offset="0" stop-color="#5ba494"/>
      <stop offset="1" stop-color="#a8d3af"/>
    </linearGradient>
    <clipPath id="clippath-17">
      <path class="cls-32" d="M147.44,73.44h0c4.68,0,8.93-1.9,12-4.98,3.07-3.07,4.98-7.32,4.98-12h0v-2.07h-3.19v2.07h0c0,3.8-1.55,7.25-4.04,9.74-2.5,2.5-5.94,4.04-9.74,4.04h0s-4.05,0-4.05,0h0c-.44,0-.84.18-1.13.47-.29.29-.47.69-.47,1.13s.18.84.47,1.13c.29.29.69.47,1.13.47h4.05Z"/>
    </clipPath>
    <linearGradient id="linear-gradient-17" x1="155.12" y1="54.31" x2="150.46" y2="76.57" xlink:href="#linear-gradient"/>
    <clipPath id="clippath-18">
      <path class="cls-32" d="M141.16,58.76v-2.08c0-1.78.72-3.4,1.9-4.57,1.17-1.17,2.79-1.9,4.57-1.9h0s12.88,0,12.88,0c.44,0,.84-.18,1.13-.47.29-.29.47-.69.47-1.13h0,0c0-.44-.18-.84-.47-1.13-.29-.29-.69-.47-1.13-.47h0s-12.88,0-12.88,0h0s0,0,0,0h0c-2.66,0-5.08,1.08-6.82,2.83s-2.83,4.16-2.83,6.82h0v2.07h2.81s.38,0,.38,0Z"/>
    </clipPath>
    <linearGradient id="linear-gradient-18" x1="147.8" y1="59.04" x2="152.77" y2="45.34" gradientUnits="userSpaceOnUse">
      <stop offset="0" stop-color="#008ed4"/>
      <stop offset="1" stop-color="#87ccf2"/>
    </linearGradient>
    <clipPath id="clippath-19">
      <path class="cls-32" d="M137.49,58.76v-2.08h0c0-2.79,1.14-5.32,2.97-7.16,1.83-1.83,4.37-2.97,7.16-2.97h0s0,0,0,0h9.73c.44,0,.84-.18,1.13-.47.29-.29.47-.69.47-1.13h0s0,0,0,0c0-.44-.18-.84-.47-1.13s-.69-.47-1.13-.47h0s0,0,0,0h-9.72c-3.67,0-7,1.49-9.41,3.9-2.41,2.41-3.9,5.74-3.9,9.41v2.07h2.81s.38,0,.38,0Z"/>
    </clipPath>
    <linearGradient id="linear-gradient-19" x1="144.39" y1="58.95" x2="149.47" y2="40.96" xlink:href="#linear-gradient-18"/>
    <clipPath id="clippath-20">
      <path class="cls-32" d="M163.79,52.29h0s0,0,0,0c0-.44-.18-.84-.47-1.13-.29-.29-1.35-.47-1.79-.47h0-13.93c-1.65,0-3.15.67-4.23,1.75-1.08,1.08-1.76,2.58-1.76,4.23v2.08h2.81s.37,0,.37,0v-2.07c0-.77.31-1.47.82-1.98.51-.51,1.21-.82,1.98-.82h14.58c.44,0,.84-.18,1.13-.47.29-.29.47-.69.47-1.13h0Z"/>
    </clipPath>
    <linearGradient id="linear-gradient-20" x1="150.58" y1="59.11" x2="155.15" y2="49.69" xlink:href="#linear-gradient-18"/>
    <clipPath id="clippath-21">
      <path class="cls-32" d="M147.62,39.7h0c-4.68,0-8.93,1.9-12,4.98-3.07,3.07-4.98,7.32-4.98,12h0v2.08h2.82s.38,0,.38,0v-2.07h0c0-3.8,1.55-7.25,4.04-9.74,2.5-2.5,5.94-4.04,9.74-4.04h0s4.05,0,4.05,0h0c.44,0,.84-.18,1.13-.47.29-.29.47-.69.47-1.13s-.18-.84-.47-1.13c-.29-.29-.69-.47-1.13-.47h-4.05Z"/>
    </clipPath>
    <linearGradient id="New_Gradient_Swatch" data-name="New Gradient Swatch" x1="139.94" y1="58.84" x2="144.6" y2="36.56" gradientUnits="userSpaceOnUse">
      <stop offset="0" stop-color="#008ed4"/>
      <stop offset="1" stop-color="#87ccf2"/>
    </linearGradient>
  </defs>
  <path class="cls-44" d="M161.91,94.17v3c-.01.97-.23,1.86-.65,2.65-.43.8-.98,1.48-1.69,2.04-.7.57-1.48,1.01-2.33,1.32-.85.31-1.71.47-2.57.47-.77,0-1.52-.09-2.27-.28-.75-.19-1.43-.49-2.04-.88-.61-.4-1.11-.93-1.47-1.57-.37-.64-.56-1.42-.57-2.33,0-1.06.22-1.97.64-2.73.42-.76.99-1.38,1.69-1.86.72-.49,1.52-.84,2.42-1.07.89-.23,1.82-.34,2.78-.34.74,0,1.46.07,2.17.22.71.14,1.38.33,2.04.57.65.24,1.28.5,1.87.79M161.91,102.56c.01.61.12,1.09.32,1.44.21.34.45.58.72.72.27.13.5.2.7.2,0,0,.07,0,.2-.03.12-.03.24-.09.36-.2.13-.11.2-.29.2-.54.01-.09-.02-.21-.09-.36-.07-.15-.24-.28-.52-.41-.14-.09-.24-.2-.31-.34-.06-.15-.09-.3-.09-.47v-11.91c0-.76-.05-1.4-.12-1.92-.08-.51-.17-.92-.27-1.22-.1-.3-.18-.53-.26-.67-.36-.87-.9-1.53-1.59-2-.7-.47-1.53-.78-2.52-.96-.99-.17-2.11-.25-3.35-.24-.57,0-1.18.05-1.86.16-.67.09-1.33.22-1.98.36-.65.15-1.23.3-1.75.45,0,0-.07.02-.17.06-.1.05-.21.12-.31.23-.11.1-.16.25-.17.44,0,.25.1.45.29.61.19.15.43.19.72.12.91-.27,1.8-.49,2.68-.66.87-.18,1.73-.26,2.59-.27.67,0,1.34.02,1.98.07.65.05,1.25.17,1.82.36.56.18,1.05.47,1.46.85.41.38.72.9.93,1.55.18.61.28,1.17.32,1.71.04.54.05,1.05.05,1.53v1.34c-.63-.34-1.29-.61-1.99-.83-.7-.22-1.39-.37-2.08-.47-.68-.11-1.31-.16-1.88-.16-1.21,0-2.37.15-3.46.45-1.09.3-2.06.76-2.91,1.38-.84.61-1.51,1.4-2,2.35-.49.95-.74,2.06-.75,3.36,0,1.08.23,2.03.65,2.84.43.81.99,1.49,1.71,2.02.72.54,1.53.94,2.44,1.21.9.27,1.84.4,2.81.4.9,0,1.8-.11,2.71-.34.9-.24,1.76-.62,2.58-1.16.82-.54,1.54-1.27,2.17-2.18v1.13ZM128.82,94.98c0-1.44.21-2.75.61-3.93.4-1.17.97-2.19,1.69-3.04.73-.85,1.58-1.5,2.56-1.96.98-.46,2.05-.69,3.21-.69.98,0,1.88.18,2.71.52.82.34,1.56.81,2.21,1.41.64.59,1.19,1.29,1.64,2.07.45.78.8,1.61,1.03,2.5.23.88.35,1.79.35,2.7,0,1.16-.19,2.27-.56,3.33-.37,1.06-.91,2-1.61,2.83-.69.83-1.53,1.48-2.51,1.96-.99.48-2.08.73-3.3.74-1.11,0-2.15-.25-3.1-.72-.96-.46-1.8-1.09-2.53-1.88-.73-.8-1.3-1.69-1.71-2.7-.42-1-.64-2.04-.67-3.12ZM127.2,111.04c.2,0,.43-.06.7-.2.27-.14.51-.37.72-.72.2-.34.31-.82.32-1.44v-8.41c.56.95,1.24,1.77,2.05,2.46.8.69,1.71,1.22,2.7,1.59,1,.37,2.06.56,3.19.57,1.13,0,2.17-.2,3.15-.57.97-.37,1.84-.88,2.6-1.55.78-.65,1.44-1.42,1.98-2.29.55-.88.97-1.82,1.26-2.83.29-1.01.44-2.06.44-3.13s-.15-2.13-.43-3.17c-.29-1.03-.7-2-1.24-2.91-.55-.9-1.2-1.7-1.97-2.4-.78-.69-1.65-1.23-2.62-1.62-.97-.39-2.02-.59-3.17-.6-1.19,0-2.3.2-3.31.59-1.01.39-1.92.98-2.7,1.75-.78.77-1.42,1.73-1.93,2.88v-2.87c-.01-.61-.12-1.09-.32-1.44-.21-.34-.45-.58-.72-.72-.27-.13-.5-.2-.7-.2,0,0-.07,0-.2.03-.13.03-.25.09-.37.2-.13.11-.2.29-.2.54,0,.09.02.2.09.35.07.15.24.29.51.42.14.07.24.19.31.36.06.17.09.32.09.45v22.5c0,.13-.03.28-.09.45-.07.17-.17.28-.31.36-.27.13-.45.26-.51.41-.07.15-.1.27-.09.36,0,.25.07.43.2.54.12.11.24.18.37.2.12.02.19.03.2.03ZM124.68,99.96c0-.76-.14-1.42-.41-2-.26-.57-.62-1.07-1.07-1.5-.45-.43-.95-.79-1.51-1.11-.56-.32-1.13-.59-1.73-.84-.59-.24-1.17-.47-1.73-.68-.45-.16-.94-.34-1.46-.55-.53-.2-1.05-.44-1.57-.7-.51-.26-.99-.56-1.42-.9-.43-.34-.77-.72-1.03-1.15-.26-.43-.39-.9-.4-1.44,0-.57.15-1.09.43-1.58.28-.48.67-.9,1.16-1.26.49-.36,1.06-.63,1.71-.84.65-.2,1.34-.3,2.09-.3.9,0,1.75.14,2.54.41.8.28,1.52.68,2.15,1.21.18.14.37.2.56.18.19-.02.35-.09.49-.24.14-.14.2-.31.21-.51,0-.1-.02-.2-.07-.31-.05-.11-.14-.22-.26-.34-.74-.59-1.59-1.06-2.55-1.39-.96-.34-1.97-.51-3.04-.51-.92,0-1.79.14-2.62.41-.83.26-1.57.64-2.21,1.13-.65.49-1.15,1.06-1.53,1.71-.37.66-.56,1.38-.57,2.17,0,.71.15,1.34.43,1.91.28.56.66,1.06,1.13,1.49.48.44,1.01.82,1.59,1.16.58.33,1.17.63,1.78.89.6.26,1.17.49,1.71.7.6.22,1.22.45,1.87.71.65.26,1.26.57,1.83.92.57.35,1.03.78,1.38,1.28.35.51.54,1.11.55,1.83,0,.54-.16,1.03-.47,1.48-.3.44-.72.82-1.26,1.15-.53.32-1.14.57-1.83.75-.7.18-1.42.27-2.2.27-.98,0-1.9-.12-2.77-.36-.86-.24-1.64-.61-2.34-1.09-.27-.18-.51-.25-.72-.22-.21.03-.37.12-.49.28-.12.15-.16.33-.14.52.02.2.14.36.33.51.57.39,1.18.73,1.84,1.01.65.28,1.33.49,2.02.63.7.15,1.39.22,2.09.22.63,0,1.29-.05,1.97-.18.69-.12,1.35-.3,2-.55.65-.25,1.24-.57,1.75-.98.53-.4.95-.88,1.26-1.45.3-.57.47-1.24.47-1.98ZM95.31,88.38l-1.38,2.31h-.04l-1.38-2.31-2.43-3.32c-.37-.49-.83-.88-1.36-1.17-.54-.29-1.09-.44-1.67-.45-.47,0-.91.13-1.32.37-.42.24-.76.56-1.03.96-.26.4-.4.85-.4,1.34,0,.37.08.72.24,1.05.16.34.38.61.66.83.28.22.62.35,1,.38.14,0,.26.02.38.03.11,0,.21.06.31.18l4.13,5.59-4.25,5.63c-.1.13-.2.2-.31.22-.11,0-.24.02-.38.03-.38.03-.72.15-1,.37-.28.22-.51.49-.66.81-.16.33-.24.68-.24,1.05,0,.52.14.97.4,1.36.26.4.59.7,1.01.92.41.23.86.34,1.34.34.57,0,1.13-.16,1.65-.45.53-.29.99-.68,1.38-1.17l2.51-3.32,1.42-2.31h.04l1.46,2.31,2.51,3.32c.39.49.85.88,1.38,1.17.53.29,1.08.44,1.65.45.52,0,.99-.13,1.4-.36.41-.24.74-.56.99-.96.24-.39.37-.83.37-1.31,0-.37-.08-.72-.24-1.05-.16-.32-.38-.59-.66-.81-.28-.22-.62-.34-1-.37-.14,0-.26-.02-.37-.03-.11-.01-.22-.08-.32-.22l-4.25-5.63,4.13-5.59c.1-.11.2-.18.32-.18.11,0,.23-.02.37-.03.38-.03.72-.16,1-.38.28-.22.51-.49.66-.83.16-.33.24-.68.24-1.05,0-.49-.14-.94-.41-1.34-.26-.4-.61-.72-1.03-.96-.41-.24-.86-.36-1.32-.37-.57,0-1.13.16-1.67.45-.54.29-.99.68-1.37,1.17l-2.47,3.32ZM76.4,87.86c.12.06.22.16.3.28.07.12.11.26.11.41v12.76c0,.71.17,1.33.49,1.87.32.54.75.97,1.3,1.27.55.3,1.17.46,1.86.47.43,0,.84-.11,1.24-.32.4-.21.73-.49.99-.84.26-.34.4-.73.41-1.15,0-.28-.03-.55-.1-.82-.07-.28-.18-.53-.32-.76-.15-.22-.34-.4-.59-.53-.12-.07-.22-.16-.3-.28-.07-.13-.11-.26-.11-.4v-12.76c0-.71-.17-1.33-.49-1.87-.32-.54-.75-.97-1.3-1.27-.55-.3-1.17-.46-1.86-.47-.43,0-.84.12-1.24.32-.4.21-.73.49-.99.84-.26.34-.4.73-.41,1.15,0,.28.03.55.1.82.07.28.18.53.32.76.15.22.34.4.59.53ZM78.91,80.08c.56,0,1.06-.14,1.51-.4.45-.27.8-.62,1.05-1.07.26-.45.39-.94.4-1.48,0-.55-.14-1.04-.4-1.49-.26-.44-.62-.8-1.07-1.07-.45-.26-.94-.4-1.49-.4-.55,0-1.04.14-1.48.4-.43.26-.78.62-1.04,1.07-.26.45-.39.94-.4,1.49,0,.55.14,1.04.38,1.48.26.45.6.8,1.04,1.07.43.26.93.4,1.49.4ZM54.16,100.49c-.24.12-.44.3-.59.53-.15.23-.26.48-.32.76-.07.27-.1.55-.1.82,0,.43.12.81.35,1.15.23.35.54.63.93.84.4.2.84.31,1.35.32.7,0,1.32-.16,1.86-.47.55-.31.98-.73,1.3-1.27.32-.54.48-1.16.49-1.87v-8.3c0-.94.22-1.76.65-2.47.42-.71.99-1.26,1.7-1.66.72-.4,1.53-.6,2.43-.61,1.59,0,2.78.34,3.6,1.06.81.71,1.22,1.8,1.22,3.27v8.71c0,.71.17,1.33.49,1.87.32.54.75.96,1.3,1.27.55.3,1.17.46,1.86.47.45,0,.88-.11,1.28-.32.4-.21.72-.49.97-.84.25-.34.38-.73.38-1.15,0-.28-.03-.55-.1-.82-.07-.28-.18-.53-.32-.76-.15-.22-.34-.4-.59-.53-.12-.07-.22-.16-.29-.28-.07-.13-.11-.26-.11-.4v-6.97c0-1.66-.24-3.08-.7-4.27-.46-1.19-1.11-2.16-1.94-2.92-.84-.76-1.83-1.32-2.98-1.67-1.14-.36-2.4-.53-3.77-.53-.43,0-.9.05-1.4.16-.51.11-1.01.28-1.51.51-.51.24-.98.53-1.41.9-.44.36-.81.8-1.11,1.3-.07-.66-.25-1.2-.54-1.63-.28-.42-.64-.74-1.08-.94-.44-.2-.92-.3-1.46-.3-.43,0-.84.12-1.23.34-.39.22-.72.51-.97.88-.25.37-.38.79-.39,1.26,0,.29.06.59.18.91.12.31.3.57.55.79.13.09.23.17.32.24.08.07.13.19.13.36v11.58c0,.14-.04.28-.11.4-.07.12-.18.22-.3.28ZM41.96,105.07c1.51-.01,2.92-.3,4.23-.86,1.31-.57,2.46-1.34,3.46-2.34,1-1,1.78-2.15,2.34-3.46.56-1.3.85-2.71.86-4.21,0-1.52-.3-2.94-.85-4.25-.56-1.32-1.34-2.47-2.33-3.46-.99-1-2.15-1.78-3.46-2.34-1.31-.55-2.73-.84-4.25-.85-1.51,0-2.92.3-4.23.86-1.31.57-2.46,1.34-3.45,2.34-.99,1-1.77,2.15-2.33,3.46-.55,1.32-.84,2.72-.85,4.23.01,1.5.3,2.9.86,4.21.57,1.31,1.34,2.46,2.34,3.46,1,.99,2.15,1.77,3.45,2.34,1.3.56,2.71.84,4.21.86ZM41.96,88.14c.84,0,1.63.16,2.37.47.73.32,1.38.75,1.93,1.3.55.55.98,1.2,1.3,1.93.31.74.47,1.52.47,2.37,0,.82-.17,1.6-.48,2.32-.32.72-.76,1.36-1.31,1.9-.56.55-1.2.99-1.94,1.3-.73.31-1.51.47-2.35.47-.84,0-1.63-.16-2.36-.47-.72-.31-1.36-.74-1.9-1.3-.54-.55-.97-1.18-1.27-1.9-.3-.72-.46-1.5-.47-2.32,0-.84.16-1.63.47-2.37.3-.73.73-1.38,1.27-1.93.55-.55,1.18-.99,1.9-1.3.73-.31,1.51-.47,2.36-.47Z"/>
  <g class="cls-46">
    <rect class="cls-10" x="99.6" y="114.25" width="4.43" height="5.12"/>
  </g>
  <g class="cls-23">
    <rect class="cls-8" x="104.75" y="114.25" width="4.66" height="5.12"/>
  </g>
  <g class="cls-26">
    <rect class="cls-7" x="110.46" y="114.25" width="3.84" height="5.12"/>
  </g>
  <g class="cls-24">
    <rect class="cls-6" x="115.04" y="114.25" width="4.02" height="5.12"/>
  </g>
  <g class="cls-25">
    <rect class="cls-3" x="119.89" y="114.25" width="5.68" height="5.12"/>
  </g>
  <g class="cls-31">
    <rect class="cls-4" x="126.27" y="114.13" width="4.6" height="5.24"/>
  </g>
  <g class="cls-28">
    <rect class="cls-2" x="131.56" y="114.25" width="3.5" height="5.12"/>
  </g>
  <g class="cls-27">
    <rect class="cls-1" x="138.11" y="114.25" width="4.02" height="5.12"/>
  </g>
  <g class="cls-30">
    <rect class="cls-5" x="142.97" y="114.25" width="3.84" height="5.12"/>
  </g>
  <g class="cls-29">
    <rect class="cls-33" x="147.33" y="114.18" width="3.49" height="5.26"/>
  </g>
  <g class="cls-16">
    <rect class="cls-34" x="151.41" y="114.18" width="5.26" height="5.26"/>
  </g>
  <g class="cls-13">
    <rect class="cls-35" x="157.48" y="114.25" width="4.02" height="5.12"/>
  </g>
  <g class="cls-20">
    <rect class="cls-36" x="161.64" y="114.25" width="4.43" height="5.12"/>
  </g>
  <g class="cls-18">
    <rect class="cls-38" x="132.86" y="62.45" width=".66" height="0"/>
  </g>
  <g class="cls-19">
    <rect class="cls-40" x="132.97" y="54.38" width="24.13" height="11.73"/>
  </g>
  <g class="cls-17">
    <rect class="cls-41" x="136.12" y="54.38" width="24.63" height="15.39"/>
  </g>
  <g class="cls-14">
    <rect class="cls-45" x="131.26" y="54.38" width="22.17" height="8.06"/>
  </g>
  <g class="cls-11">
    <rect class="cls-42" x="141.8" y="54.38" width="22.62" height="19.05"/>
  </g>
  <g class="cls-15">
    <rect class="cls-43" x="137.97" y="47.03" width="24.13" height="11.73"/>
  </g>
  <g class="cls-12">
    <rect class="cls-37" x="134.3" y="43.37" width="24.63" height="15.39"/>
  </g>
  <g class="cls-21">
    <rect class="cls-39" x="141.63" y="50.69" width="22.17" height="8.06"/>
  </g>
  <g class="cls-22">
    <rect class="cls-9" x="130.64" y="39.7" width="22.62" height="19.05"/>
  </g>
</svg>