<?xml version="1.0" encoding="UTF-8"?>
<svg id="Layer_1" data-name="Layer 1" xmlns="http://www.w3.org/2000/svg" viewBox="0 0 215.29 176.94">
  <defs>
    <style>
      .cls-1 {
        fill: #facd3d;
      }

      .cls-2 {
        fill: #de007e;
      }
    </style>
  </defs>
  <path class="cls-1" d="M105.22,34.38c.39.59.91,1.1,1.51,1.52.61.43,1.3.8,2.04.99,2.42.59,3.78.09,4.84-.38,1.42-.63,2.28-1.49,3.02-2.73.79-1.33.68-2.54.51-3.39-.29-1.45-1.39-2.45-2.24-2.47.27.56.47,1.16.51,1.81,0,.09,0,.19,0,.28,0,.1,0,.19,0,.29,0,.1-.02.2-.03.29v.08s-.01.02-.01.02c0,.07,0,.02,0,.04h0s0,.03,0,.03l-.02.09c-.02.08-.04.21-.07.29-.02.09-.05.18-.08.27-.06.18-.13.36-.21.53-.32.71-.83,1.4-1.55,1.93-.36.27-.78.49-1.21.64-.44.15-.89.24-1.32.27-.22.01-.43,0-.64,0l-.3-.03c-.06,0-.12-.01-.17-.02l-.16-.03c-.41-.08-.8-.22-1.16-.4-.71-.36-1.24-.92-1.56-1.56-.08-.16-.15-.32-.2-.49-.05-.17-.08-.35-.1-.52-.01-.18-.01-.36.01-.54.01-.09.03-.18.05-.27l.04-.13v-.03s.01-.01.02-.02h0s0-.02,0-.02l.02-.05c.06-.18.14-.33.24-.48.1-.15.2-.29.33-.42.24-.26.53-.47.84-.61.62-.28,1.27-.33,1.82-.23h.03c.08.02.13.09.11.16-.02.06-.08.11-.15.11-.51.02-1.03.15-1.44.43-.41.27-.7.7-.8,1.14-.1.45.03.92.3,1.3.27.39.67.7,1.14.89.23.09.49.15.74.18.25.02.53.02.78-.02.52-.07,1-.29,1.39-.61.38-.32.66-.74.83-1.18.09-.22.14-.45.18-.68.03-.24.04-.45.02-.68-.05-.44-.2-.88-.44-1.26-.23-.38-.54-.73-.91-1.01-.37-.28-.79-.49-1.25-.6l-.17-.04-.18-.03-.17-.02h-.19c-.25-.03-.49-.03-.74-.02-.49.04-.98.15-1.44.34-.46.19-.9.45-1.28.76-.38.32-.71.69-.97,1.09,0,0-1.14,1.58-.84,3.34.07.67.31,1.32.69,1.89"/>
  <path class="cls-1" d="M119.54,33.4c-1.39,4.63-4.76,6.04-4.76,6.04-1.02.48-2.14.83-3.33.98-.6.08-1.22.1-1.85.05-.32-.02-.64-.06-.95-.12-.08-.02-.16-.03-.24-.05h-.06s-.1-.04-.1-.04l-.08-.02-.15-.04-.24-.07c-.08-.02-.17-.05-.24-.07l-.21-.07c-.14-.05-.27-.1-.41-.15-.27-.1-.53-.22-.78-.34-.5-.25-.98-.53-1.42-.85,0,0-2.53-1.96-2.94-5.04-.14.63-.36,1.84-.37,2.52-.07,5.19,4.03,9.46,9.16,9.53,5.13.07,9.34-4.08,9.41-9.27.01-.7-.13-2.32-.41-2.99"/>
  <path class="cls-2" d="M152.49,57.45c0-1.17-.64-1.76-1.94-1.76l-12.94-.03c-1.23,0-1.94.58-1.95,1.75v4.68c-.01,1.11.7,1.76,1.93,1.76h3.75c0,2.87-.33,5.62-5.12,5.61-4.79,0-5.11-2.76-5.1-7.26l.02-8.42c0-4.5.34-7.25,5.13-7.24,3.69,0,4.76.71,5.01,3.51.13,1.23.74,1.9,2.16,1.9,0,0,5.49.19,7.32.01,1.18-.11,1.68-1.6,1.69-2.65.04-5.56-2.19-12.96-15.78-12.99-15.34-.03-16.64,10.48-16.65,14.34l-.03,14.62c0,3.86.88,14.21,16.21,14.24,15.34.03,16.26-10.32,16.27-14.17l.02-7.89Z"/>
  <path class="cls-2" d="M64.84,79.05l18.42.04c5.11.01,8.9-.37,11.59-1.36,2.68-1,4.26-2.52,5.17-4.96.6-1.63.88-3.69.89-6.24,0-4.24-1.56-8.55-4.98-10.13l-.66-.29.5-.52c2.93-3.04,3.68-6.38,3.68-8.71,0-2.88-.32-5.36-1.02-7.44-.7-2.08-1.75-3.77-3.23-5.12-2.94-2.69-7.66-4.05-14.61-4.07l-15.64-.03c-.67.03-1.1.2-1.35.45-.25.25-.41.62-.41,1.25l-.09,45.52c0,.58.16.95.43,1.21.27.25.68.42,1.31.42M75,44.11c0-.81.25-1.51.75-1.97.51-.47,1.2-.67,1.99-.67h4.03c1.02.01,1.91.05,2.69.21.78.16,1.47.46,2,1,.35.36.62.82.81,1.38.25.74.36,1.65.36,2.79,0,1.28-.15,2.27-.47,3.05-.32.78-.85,1.35-1.51,1.69-.44.23-.93.37-1.47.45-.72.12-1.52.14-2.43.14h-4.03c-.79,0-1.48-.21-1.99-.68-.51-.47-.75-1.17-.75-1.98v-5.41ZM74.88,62.86c0-.81.24-1.51.75-1.98.51-.47,1.2-.67,1.99-.66h4.85c1.36.02,2.47.08,3.38.38.91.29,1.63.88,1.99,1.79.24.61.35,2.53.35,3.4,0,.88-.12,1.6-.38,2.2-.26.6-.69,1.05-1.22,1.35-1.07.59-2.47.65-4.27.65h-4.7c-.79,0-1.48-.21-1.99-.68-.51-.47-.75-1.17-.75-1.98v-4.47Z"/>
  <path class="cls-2" d="M113.93,52.02h-6.86c-1.19-.02-1.87.54-1.87,1.65l-.05,23.76c0,1.06.68,1.67,1.87,1.67l6.86.02c1.25,0,1.87-.61,1.87-1.67l.05-23.76c0-1.11-.62-1.67-1.87-1.67"/>
  <path class="cls-2" d="M172.37,78.52l-11.37-.03c-1.35.06-2.02.64-2.03,1.82l-.08,37.57c0,1.12.74,1.77,2.02,1.77l6.27.02c1.35,0,2.03-.58,2.03-1.76l.02-10.48c0-1.18.74-1.76,2.03-1.76h1.25c12.65,0,16.69-3.16,16.69-13.52,0-9.64-4.83-13.6-16.83-13.62M174.48,96.63h-3.2c-1.28-.01-2.02-.66-2.02-1.78v-5.58c.01-1.18.75-1.76,2.04-1.76h2.55c3.24.01,4.97.98,4.97,4.63,0,3.17-1.1,4.5-4.34,4.49Z"/>
  <path class="cls-2" d="M108.09,85.02c-13.72-.03-14.55,9.23-14.56,12.68l-.02,9.28c0,3.45.78,12.71,14.51,12.74,13.72.03,14.55-9.23,14.56-12.68l.02-9.28c0-3.45-.79-12.71-14.51-12.74M112.62,104.25c0,4.03-.3,6.49-4.59,6.48-4.28,0-4.57-2.47-4.56-6.5v-3.73c.02-4.03.31-6.49,4.6-6.48,4.28,0,4.57,2.47,4.56,6.5v3.73Z"/>
  <path class="cls-2" d="M140.76,85.02c-13.72-.03-14.55,9.23-14.56,12.68l-.02,9.28c0,3.45.78,12.71,14.51,12.74,13.72.03,14.55-9.23,14.56-12.68l.02-9.28c0-3.45-.78-12.71-14.51-12.74M145.29,104.25c0,4.03-.3,6.49-4.59,6.48-4.28,0-4.57-2.47-4.56-6.5v-3.73c.02-4.03.31-6.49,4.6-6.48,4.28,0,4.57,2.47,4.56,6.5v3.73Z"/>
  <path class="cls-2" d="M38.05,88.16c-.1-.66-.1-1.52.24-2.29.87-1.96,2.64-2.05,4.74-2.04,1.98,0,3.6.72,4.48,2.03.69,1.02.73,2.83.86,3.62.18,1.22.78,1.54,2.03,1.54,1.74,0,4.72,0,6.47,0,1.59,0,1.6-2.43,1.6-3.53,0-5.39-3.3-12.63-15.97-12.66-13.78-.03-14.85,9.95-14.85,12.65,0,14.09,19.79,12.98,20.84,18.19.64,3.24-1.74,5.03-5.95,5.03s-5.82-3.1-5.88-6.06c-.03-1.52-.62-1.83-2.08-1.83-2,0-4.79.01-6.53.02-1.97,0-1.66,2.42-1.6,3.52.41,7.61,6.33,12.22,12.71,13.1,6.2.86,14.05-.78,18.04-6.51,2.29-3.29,2.24-9.14-.23-12.5-2.09-2.85-5.45-3.98-8.44-5.35-2.21-1.02-5.28-1.98-7.45-3.1-2.03-1.04-2.79-2.24-3.03-3.82"/>
  <path class="cls-2" d="M76.46,94.09c3.4,0,4.53,1.65,4.53,3.68,0,.64.06,2.01,1.8,2.01,1.79,0,5.39.24,6.81-.42.75-.35,1.02-.91,1.07-3.36,0-4.27-2.9-10.94-14.2-10.96-12.41-.03-14.48,8.35-14.48,11.47l-.02,11.83c0,3.12,1.8,11.52,14.44,11.52s14.55-8.07,14.34-11.62c-.07-1.22-.39-2.24-2.61-2.21-2.18.02-3.84,0-5.48.11-.94.07-1.52.41-1.92,2.05,0,0-.04.16-.04.16-.01.05-.03.08-.04.12,0,.01-.01.02-.01.03-.45,1.44-1.89,2.31-4.23,2.31-3.67,0-4.13-1.31-4.12-4.96v-6.81c.01-3.16.65-4.94,4.16-4.94"/>
  <path class="cls-1" d="M32.94,139.62l-.1.84c0,.88.29,1.48.88,1.81.2.11.44.16.72.16s.53-.05.76-.15c.22-.1.41-.23.55-.39.3-.33.45-.71.45-1.14s-.09-.82-.26-1.17c-.17-.35-.39-.7-.65-1.05l-.86-1.07c-.7-.84-1.17-1.62-1.41-2.31-.24-.7-.36-1.34-.36-1.92s.07-1.14.21-1.66c.14-.52.34-1.02.59-1.49.25-.47.55-.9.91-1.3.35-.39.75-.73,1.18-1.02.9-.61,1.79-.92,2.68-.92s1.58.12,2.07.37c.5.25.9.56,1.2.94.56.72.84,1.58.84,2.59,0,.94-.26,1.83-.79,2.66-.48.76-1.02,1.24-1.62,1.44-.13.07-.31.1-.53.1s-.42-.04-.57-.1c-.15-.07-.29-.16-.4-.28-.25-.25-.38-.53-.38-.83,0-.2.06-.34.18-.4.55-.3,1.02-.73,1.43-1.3.44-.62.67-1.24.69-1.85.02-.62-.12-1.07-.44-1.37-.31-.3-.73-.44-1.25-.44s-.99.12-1.41.36c-.42.24-.78.56-1.08.96-.65.86-.97,1.88-.97,3.05,0,.78.27,1.61.8,2.47.22.37.47.74.73,1.1.26.36.51.73.74,1.11.53.88.79,1.67.79,2.37s-.12,1.29-.37,1.77c-.25.48-.58.9-.99,1.26-.89.77-1.9,1.16-3.03,1.16-1.07,0-1.89-.32-2.46-.96-.46-.52-.69-1.08-.69-1.68,0-.66.18-1.21.55-1.66.28-.34.55-.55.81-.61.57-.15.85.03.85.56"/>
  <path class="cls-1" d="M45.07,142.62c-.98.88-1.75,1.32-2.31,1.32s-.95-.29-1.16-.87c-.08-.2-.12-.39-.12-.57,0-.47.07-.93.22-1.38.15-.44.29-.86.44-1.25l.95-2.48c.37-1.01.59-1.72.67-2.12.08-.4.07-.67-.03-.82-.1-.14-.22-.27-.35-.37-.13-.1-.26-.2-.38-.28-.12-.08-.18-.19-.18-.32s.05-.25.16-.37c.1-.12.24-.22.42-.31.35-.17.7-.25,1.07-.25s.66.04.88.12c.21.08.39.17.52.29.27.24.4.53.4.87s-.06.72-.17,1.14c-.11.42-.25.87-.42,1.35-.17.47-.36.97-.57,1.48l-.59,1.51c-.47,1.22-.75,2.13-.85,2.74.68-.23,1.57-1.07,2.69-2.52,1.22-1.58,2.29-3.39,3.23-5.41.11-.25.24-.42.4-.49.26-.12.59-.18.98-.16.63.02.95.22.97.59.01.23-.04.48-.18.75-.13.27-.24.5-.33.68l-.42.87c-.84,1.73-1.26,3.13-1.26,4.21,0,.75.2,1.27.61,1.54.11.09.29.13.53.13s.52-.09.84-.26c.32-.17.63-.41.93-.71.29-.3.57-.65.83-1.04.25-.4.48-.82.66-1.27.4-.96.59-1.8.59-2.54,0-1.26-.23-2.19-.7-2.79-.16-.19-.11-.41.14-.67.27-.27.68-.4,1.25-.4.7,0,1.17.4,1.43,1.19.1.3.15.75.15,1.35s-.11,1.26-.31,2c-.21.73-.49,1.44-.85,2.11-.36.68-.77,1.3-1.23,1.89-.47.58-.95,1.09-1.47,1.52-1.09.92-2.11,1.38-3.05,1.38-1.61,0-2.41-1.05-2.41-3.15,0-.48.04-.95.13-1.41-.85,1.25-1.77,2.32-2.75,3.2"/>
  <path class="cls-1" d="M58.21,140.04c.03-.63.13-1.24.31-1.82.18-.58.42-1.14.72-1.68.3-.54.66-1.06,1.06-1.54.41-.48.85-.91,1.32-1.27,1.03-.78,2.07-1.17,3.12-1.17,1.23,0,2.05.51,2.46,1.54.14.35.21.76.2,1.24,0,.48-.1.92-.27,1.32-.17.4-.41.77-.72,1.1-.31.33-.67.63-1.09.89-.42.26-.88.48-1.38.67-1.02.36-2.12.55-3.29.57-.03.1-.05.26-.05.46,0,.21.01.43.07.68.05.25.14.48.26.67.26.44.63.66,1.12.66.83,0,1.65-.25,2.44-.74.28-.17.51-.34.69-.52.18-.18.33-.27.46-.27s.24.08.34.23c.1.16.15.33.15.53,0,.39-.11.72-.32,1.01-.91.92-2.26,1.38-4.05,1.38-1.06,0-1.91-.32-2.55-.96-.72-.73-1.06-1.72-1.02-2.98M64.53,134c-.76,0-1.48.53-2.18,1.58-.59.91-1.07,1.98-1.43,3.22,1.2-.12,2.25-.61,3.13-1.44.81-.79,1.22-1.54,1.22-2.27s-.25-1.08-.75-1.08Z"/>
  <path class="cls-1" d="M68.65,140.04c.03-.63.13-1.24.31-1.82.18-.58.42-1.14.72-1.68.3-.54.66-1.06,1.06-1.54.41-.48.85-.91,1.32-1.27,1.03-.78,2.07-1.17,3.12-1.17,1.23,0,2.05.51,2.46,1.54.15.35.21.76.21,1.24,0,.48-.1.92-.27,1.32-.17.4-.41.77-.72,1.1-.31.33-.67.63-1.09.89-.42.26-.88.48-1.38.67-1.02.36-2.12.55-3.29.57-.03.1-.05.26-.05.46,0,.21.01.43.07.68.05.25.14.48.26.67.26.44.63.66,1.12.66.84,0,1.65-.25,2.44-.74.28-.17.51-.34.69-.52.18-.18.33-.27.46-.27s.24.08.34.23c.1.16.15.33.15.53,0,.39-.11.72-.32,1.01-.91.92-2.26,1.38-4.05,1.38-1.06,0-1.91-.32-2.55-.96-.72-.73-1.06-1.72-1.02-2.98M74.97,134c-.76,0-1.48.53-2.18,1.58-.59.91-1.07,1.98-1.43,3.22,1.2-.12,2.25-.61,3.13-1.44.81-.79,1.22-1.54,1.22-2.27s-.25-1.08-.75-1.08Z"/>
  <path class="cls-1" d="M85.28,141.01c.21,0,.31.14.31.43,0,.24-.07.47-.22.7-.2.42-.58.82-1.17,1.2-.66.43-1.33.65-2,.65-1.16,0-1.89-.53-2.2-1.57-.37-1.25.18-3.89,1.65-7.93-.83-.07-1.28-.22-1.35-.44-.02-.07-.03-.14-.03-.21s.03-.17.1-.27c.07-.1.16-.2.26-.3.25-.21.51-.32.77-.32h.85c.78-1.84,1.33-2.9,1.66-3.15.16-.12.34-.18.53-.18s.36.03.49.08c.13.05.24.12.35.22.23.22.35.46.35.73,0,.15-.04.31-.13.5l-.8,1.76h.26c.45,0,.81,0,1.08-.01h.62c.14-.02.31-.02.51-.02s.31.08.31.23c0,.96-1.12,1.44-3.37,1.44h-.09l-.73,1.93c-.83,2.28-1.24,3.87-1.24,4.78,0,.26.06.45.17.6.11.14.33.21.65.21s.61-.06.86-.16c.26-.11.49-.23.68-.37.19-.13.36-.26.5-.37.14-.11.26-.16.36-.16"/>
  <path class="cls-1" d="M86.41,141.95c0-.23.05-.44.15-.63.1-.19.22-.35.36-.49.3-.29.62-.43.95-.43.29,0,.43.15.43.45,0,.76.25,1.29.75,1.59.18.11.37.16.56.16s.36-.02.5-.07c.14-.04.26-.11.38-.21.26-.21.39-.46.39-.76s-.06-.56-.19-.8c-.13-.24-.29-.5-.49-.77l-.62-.88c-.86-1.17-1.3-2.24-1.3-3.23,0-.82.34-1.56,1.03-2.22.78-.75,1.78-1.13,2.99-1.13,1.07,0,1.9.27,2.5.8.49.43.73.92.73,1.48s-.22,1.04-.65,1.38c-.39.31-.78.42-1.17.34-.17-.04-.31-.13-.4-.27-.09-.14-.11-.3-.05-.49.06-.18.09-.37.09-.57s-.04-.38-.11-.55c-.07-.17-.17-.31-.29-.43-.25-.24-.52-.36-.79-.36s-.51.03-.69.09c-.18.06-.34.15-.48.27-.28.26-.42.58-.42.97s.06.71.19.99c.13.28.29.55.48.83.19.28.4.56.62.84.22.29.43.58.62.9.45.74.68,1.38.68,1.94s-.12,1.02-.35,1.4c-.23.38-.53.7-.9.97-.79.59-1.66.89-2.64.89s-1.66-.23-2.2-.68c-.45-.38-.67-.83-.67-1.35"/>
  <path class="cls-1" d="M113.25,129.51c0-.76-.51-1.14-1.52-1.14-1.17,0-2.27.57-3.31,1.7-.61.67-1.05,1.4-1.3,2.19-.13.38-.19.72-.19,1.03s.03.56.1.75c.07.19.16.35.26.48.22.27.48.37.78.31.35-.15.67-.22.94-.22s.49.04.65.1c.16.07.3.16.41.26.2.2.3.4.3.59,0,.37-.12.56-.37.58-.31.02-.68.13-1.12.32-.44.19-.86.43-1.26.73-.4.3-.76.63-1.08,1-.72.83-1.08,1.68-1.08,2.54s.35,1.49,1.05,1.78c.23.1.52.15.85.15s.67-.07.99-.22c.32-.15.6-.34.84-.56.51-.5.77-1.02.79-1.56.01-.69-.27-1.13-.84-1.3-.15-.04-.27-.09-.36-.15-.09-.06-.11-.14-.08-.27.04-.12.12-.25.24-.37.3-.34.64-.5,1.01-.5.16,0,.41.04.75.11.62.14,1.07.21,1.35.21.59,0,1.06-.04,1.39-.13.34-.08.62-.16.84-.21.38-.11.57-.02.57.27s-.08.56-.24.8c-.16.25-.37.46-.64.64-.58.39-1.28.57-2.12.56.02.11.03.22.03.33,0,.41-.13.83-.4,1.27-.27.44-.63.84-1.08,1.2-1.03.82-2.21,1.22-3.53,1.22s-2.31-.37-2.99-1.12c-.54-.59-.81-1.28-.81-2.08,0-1.59.65-3,1.95-4.23.44-.42.86-.71,1.25-.88-.77-.33-1.29-.97-1.54-1.91-.08-.31-.12-.66-.12-1.07s.08-.85.24-1.33c.16-.48.38-.94.68-1.37.29-.44.64-.85,1.05-1.23.41-.38.86-.71,1.36-.99,1.09-.61,2.23-.92,3.43-.92s2.14.36,2.78,1.09c.53.59.79,1.31.79,2.16,0,.89-.37,1.77-1.11,2.65-.72.86-1.41,1.29-2.08,1.29-.37,0-.71-.16-1.02-.48-.27-.29-.41-.55-.41-.78s.06-.37.18-.44c1.26-.69,2.1-1.38,2.53-2.07.16-.26.24-.51.24-.77"/>
  <path class="cls-1" d="M122.65,139.28v-.32c.09-2.18.63-4.24,1.64-6.18.93-1.77,2.1-3.2,3.51-4.3,1.4-1.08,2.76-1.62,4.09-1.62,1.01,0,1.8.35,2.39,1.06.5.61.75,1.36.75,2.25,0,1.06-.39,2.12-1.16,3.15-.45.6-.92,1.03-1.43,1.29-.24.13-.46.2-.66.2s-.39-.04-.57-.13c-.17-.09-.32-.2-.45-.33-.27-.29-.4-.54-.4-.77s.06-.38.17-.47c1.18-.86,1.98-1.75,2.41-2.66.17-.35.25-.69.25-1.03,0-.71-.33-1.06-.99-1.06-1.04,0-2.11.57-3.21,1.72-1.03,1.06-1.89,2.38-2.59,3.98-.73,1.64-1.11,3.15-1.16,4.52v.42c-.01,1.64.33,2.72,1.02,3.23.25.18.54.27.88.27s.66-.04.97-.13c.3-.09.61-.21.91-.36.49-.26,1.12-.7,1.88-1.32.23-.18.42-.16.57.08.13.19.19.41.19.66,0,.42-.06.7-.17.85-.11.15-.3.33-.57.53-.27.2-.6.39-.99.57-.91.41-1.8.61-2.67.61s-1.58-.11-2.11-.32c-.53-.21-.98-.52-1.35-.92-.76-.84-1.15-2-1.15-3.46"/>
  <path class="cls-1" d="M134.22,143.61c-.14-.11-.26-.23-.35-.37-.09-.14-.13-.25-.14-.35,0-.1.01-.22.06-.36.05-.14.11-.32.19-.52,1.47-3.66,2.21-6.12,2.21-7.37-.02-.35-.14-.6-.36-.74l-.22-.15c-.07-.05-.1-.14-.1-.27,0-.13.04-.25.13-.37.09-.12.22-.22.37-.31.31-.17.63-.25.96-.25s.58.04.77.11c.18.07.34.17.47.3.27.26.41.54.42.83,0,.29-.03.59-.1.89-.07.3-.15.59-.24.88-.09.29-.19.56-.28.82-.09.26-.16.45-.18.57-.06.26-.08.42-.06.48.17-.15.28-.3.31-.45l.42-.81c.94-1.71,1.85-2.84,2.75-3.39.26-.15.57-.23.93-.23s.66.13.88.39c.22.26.34.55.35.86.01.31-.01.57-.06.78-.05.21-.14.4-.24.59-.24.41-.52.61-.86.61-.09,0-.18-.03-.26-.1l-.24-.21c-.24-.21-.47-.32-.69-.32s-.49.15-.8.44c-.31.29-.64.67-.98,1.13-1.14,1.52-2.07,3.23-2.79,5.12l-.48,1.27c-.12.31-.23.54-.32.67-.09.14-.23.2-.42.2s-.37-.03-.55-.1c-.18-.07-.35-.16-.49-.27"/>
  <path class="cls-1" d="M143.31,140.04c.03-.63.13-1.24.31-1.82.18-.58.42-1.14.72-1.68.3-.54.66-1.06,1.07-1.54.41-.48.85-.91,1.32-1.27,1.03-.78,2.07-1.17,3.12-1.17,1.23,0,2.05.51,2.46,1.54.14.35.21.76.21,1.24,0,.48-.1.92-.27,1.32-.17.4-.41.77-.72,1.1-.31.33-.67.63-1.09.89-.42.26-.88.48-1.38.67-1.02.36-2.12.55-3.29.57-.03.1-.05.26-.05.46,0,.21.01.43.06.68.05.25.14.48.26.67.26.44.63.66,1.12.66.84,0,1.65-.25,2.44-.74.28-.17.51-.34.69-.52.18-.18.33-.27.46-.27s.24.08.34.23c.1.16.15.33.15.53,0,.39-.11.72-.32,1.01-.91.92-2.26,1.38-4.05,1.38-1.06,0-1.91-.32-2.55-.96-.72-.73-1.06-1.72-1.02-2.98M149.62,134c-.76,0-1.48.53-2.18,1.58-.59.91-1.07,1.98-1.43,3.22,1.2-.12,2.25-.61,3.13-1.44.81-.79,1.22-1.54,1.22-2.27s-.25-1.08-.75-1.08Z"/>
  <path class="cls-1" d="M155.58,142.83c-.01.11-.17.68-.47,1.73-.3,1.04-.55,1.87-.75,2.48-.45,1.37-.83,2.22-1.12,2.56-.24.26-.53.39-.87.39-.41,0-.72-.2-.94-.61-.06-.12-.1-.25-.1-.39s.11-.45.32-.92c.57-1.2,1.33-3.57,2.28-7.11.38-1.4.63-2.35.76-2.86l.35-1.37c.22-.9.35-1.52.4-1.84.04-.32.02-.55-.06-.69-.08-.14-.17-.24-.27-.31-.1-.07-.19-.13-.28-.18-.09-.05-.12-.14-.11-.28.02-.14.07-.26.18-.37.1-.11.24-.21.39-.29.32-.15.65-.23.98-.23s.59.04.77.12c.19.08.34.19.46.33.26.29.37.56.35.83-.07.56-.15,1.04-.24,1.44,1.26-1.82,2.57-2.72,3.92-2.72,1.23,0,2.06.65,2.48,1.94.14.45.22,1,.22,1.65s-.1,1.3-.29,1.95c-.19.65-.46,1.27-.79,1.85-.33.58-.72,1.12-1.16,1.61-.44.49-.9.92-1.39,1.28-1.04.76-2.02,1.14-2.94,1.14s-1.61-.38-2.08-1.15M157.25,138.17c-.26.51-.48,1.03-.64,1.54-.16.51-.24.98-.24,1.4s.09.77.27,1.04c.18.27.45.41.8.41s.7-.1,1.05-.29c.35-.19.69-.45,1.02-.78.33-.33.63-.71.92-1.15.28-.44.53-.91.74-1.41.45-1.08.68-2.1.68-3.07,0-.52-.07-.93-.21-1.22-.14-.29-.35-.44-.63-.44s-.58.11-.89.33c-.31.22-.63.52-.97.89-.34.37-.67.79-1.01,1.27-.33.48-.63.97-.89,1.49Z"/>
  <path class="cls-1" d="M165.94,140.04c.03-.63.13-1.24.31-1.82.18-.58.42-1.14.72-1.68.3-.54.66-1.06,1.06-1.54.41-.48.85-.91,1.32-1.27,1.03-.78,2.07-1.17,3.12-1.17,1.23,0,2.05.51,2.46,1.54.14.35.21.76.21,1.24,0,.48-.1.92-.27,1.32-.17.4-.41.77-.72,1.1-.31.33-.67.63-1.09.89-.42.26-.88.48-1.38.67-1.02.36-2.12.55-3.29.57-.03.1-.05.26-.05.46,0,.21.01.43.06.68.05.25.14.48.26.67.26.44.63.66,1.12.66.84,0,1.65-.25,2.44-.74.28-.17.51-.34.69-.52.18-.18.33-.27.46-.27s.24.08.34.23c.1.16.15.33.15.53,0,.39-.11.72-.32,1.01-.91.92-2.26,1.38-4.05,1.38-1.06,0-1.91-.32-2.55-.96-.72-.73-1.06-1.72-1.02-2.98M172.25,134c-.76,0-1.48.53-2.18,1.58-.59.91-1.07,1.98-1.43,3.22,1.2-.12,2.25-.61,3.13-1.44.81-.79,1.22-1.54,1.22-2.27s-.25-1.08-.75-1.08Z"/>
  <path class="cls-1" d="M175.76,141.95c0-.23.05-.44.14-.63.1-.19.22-.35.36-.49.3-.29.62-.43.95-.43.29,0,.43.15.43.45,0,.76.25,1.29.75,1.59.18.11.37.16.56.16s.36-.02.5-.07c.14-.04.26-.11.38-.21.26-.21.39-.46.39-.76s-.06-.56-.19-.8c-.13-.24-.29-.5-.49-.77l-.62-.88c-.86-1.17-1.3-2.24-1.3-3.23,0-.82.34-1.56,1.03-2.22.78-.75,1.78-1.13,2.99-1.13,1.07,0,1.9.27,2.5.8.49.43.73.92.73,1.48s-.22,1.04-.65,1.38c-.39.31-.78.42-1.17.34-.17-.04-.31-.13-.4-.27-.09-.14-.11-.3-.05-.49.06-.18.09-.37.09-.57s-.04-.38-.11-.55c-.07-.17-.17-.31-.29-.43-.25-.24-.52-.36-.79-.36s-.51.03-.69.09c-.18.06-.34.15-.48.27-.28.26-.42.58-.42.97s.06.71.19.99c.13.28.29.55.48.83.19.28.4.56.62.84.22.29.43.58.62.9.45.74.68,1.38.68,1.94s-.12,1.02-.35,1.4c-.23.38-.53.7-.9.97-.79.59-1.66.89-2.64.89s-1.66-.23-2.2-.68c-.45-.38-.67-.83-.67-1.35"/>
</svg>