<?xml version="1.0" encoding="UTF-8"?>
<svg id="Layer_1" data-name="Layer 1" xmlns="http://www.w3.org/2000/svg" viewBox="0 0 215.29 176.94">
  <defs>
    <style>
      .cls-1 {
        stroke: #b08e65;
        stroke-width: .22px;
      }

      .cls-1, .cls-2 {
        fill: none;
        stroke-miterlimit: 10;
      }

      .cls-3 {
        fill: #a08562;
      }

      .cls-4 {
        fill: #fefcea;
      }

      .cls-2 {
        stroke: #fefcea;
        stroke-width: 7px;
      }

      .cls-5 {
        fill: #b08e65;
      }
    </style>
  </defs>
  <path class="cls-4" d="M50.77,126.01c-6.93,0-13.46-2.71-18.38-7.62-4.92-4.92-7.62-11.44-7.62-18.37v-24.89c0-14.33,11.66-25.99,26-25.99,12.65,0,23.69,9.41,25.67,21.88.22,1.35.32,2.73.32,4.11v24.89c0,1.39-.11,2.78-.33,4.12-1.99,12.47-13.02,21.88-25.67,21.88M50.77,54.39c-11.43,0-20.73,9.3-20.73,20.73v24.89c0,5.53,2.16,10.73,6.08,14.65,3.92,3.92,9.13,6.08,14.65,6.08,10.08,0,18.88-7.5,20.47-17.45.18-1.07.26-2.17.26-3.28v-24.89c0-1.1-.09-2.2-.26-3.28-1.59-9.95-10.39-17.45-20.48-17.45Z"/>
  <path class="cls-4" d="M104.79,117.12h-3.27c-1.68,0-2.96-1.07-3.25-2.62-.11.52-.33,1-.67,1.41-.53.65-1.29,1.07-2.15,1.19l-.34.02h-3.37c-1.76,0-3.08-1.17-3.29-2.85-.14.5-.39.98-.75,1.38l-.05.06c-.63.67-1.49,1.05-2.4,1.05h-3.27c-.88,0-1.72-.35-2.36-.98-.64-.64-.99-1.48-.99-2.36v-52.01c0-.92.39-1.81,1.07-2.43.62-.57,1.43-.89,2.27-.89h3.27c.38,0,.75.06,1.09.18.67-.14,1.38-.21,2.17-.21,1.26,0,2.48.23,3.62.68.44.17.86.37,1.26.6.4-.23.82-.43,1.25-.6,2.35-.94,5.17-.91,7.49.11,1.18.52,2.21,1.22,3.08,2.09.86.84,1.56,1.88,2.08,3.08.53,1.2.8,2.5.8,3.87v46.25c-.09.77-.42,1.48-.99,2.04-.61.61-1.43.95-2.32.95M83.9,63.36v2.11c.15-.29.34-.56.55-.82l-.55-1.28Z"/>
  <path class="cls-4" d="M104.79,117.19h-3.27c-1.62,0-2.87-.97-3.25-2.41-.12.43-.33.83-.62,1.18-.54.67-1.32,1.09-2.19,1.21l-.34.02h-3.38c-1.7,0-3-1.07-3.31-2.64-.15.42-.38.81-.68,1.16l-.06.06c-.65.68-1.51,1.06-2.44,1.06h-3.27c-.9,0-1.76-.36-2.41-1.01-.64-.64-1-1.5-1-2.4v-52.01c0-.94.4-1.84,1.09-2.47.63-.58,1.45-.9,2.32-.9h3.27c.39,0,.76.06,1.1.17.66-.14,1.38-.21,2.16-.21,1.26,0,2.49.23,3.64.69.43.17.84.37,1.23.59.39-.22.81-.42,1.23-.59,2.37-.95,5.2-.91,7.54.11,1.2.53,2.21,1.21,3.1,2.1.86.85,1.57,1.9,2.1,3.1.53,1.2.8,2.51.8,3.89v46.26c-.1.79-.44,1.5-1.01,2.07-.62.62-1.46.96-2.36.96M83.96,63.53v1.7c.13-.22.28-.43.44-.64l-.44-1.06Z"/>
  <path class="cls-2" d="M123.57,65.26c-.29-.77-.67-1.47-1.15-2.1-.67-.84-1.49-1.5-2.45-1.97-.97-.48-2.03-.71-3.18-.71s-2.21.23-3.19.71c-.98.47-1.8,1.13-2.47,1.97-.48.62-.86,1.32-1.15,2.1-.29.77-.43,1.58-.43,2.42v39.26c0,.84.14,1.64.43,2.4.28.76.67,1.46,1.15,2.08.67.83,1.49,1.5,2.47,1.99.98.49,2.05.73,3.19.73s2.2-.24,3.18-.73c.96-.49,1.79-1.16,2.45-1.99.47-.62.86-1.31,1.15-2.08.28-.77.43-1.56.43-2.4v-39.26c0-.84-.14-1.65-.43-2.42ZM119.34,106.93c0,.69-.25,1.29-.75,1.79-.51.51-1.11.76-1.8.76s-1.33-.25-1.83-.76c-.5-.5-.75-1.1-.75-1.79v-39.26c0-.7.25-1.29.75-1.8.5-.5,1.11-.75,1.83-.75s1.29.25,1.8.75c.5.51.75,1.1.75,1.8v39.26Z"/>
  <path class="cls-4" d="M142.13,116.76h-3.53c-.84,0-1.62-.3-2.26-.87-.53-.47-.89-1.09-1.02-1.79-.12.6-.41,1.16-.84,1.61-.63.67-1.49,1.05-2.4,1.05h-3.26c-.89,0-1.73-.35-2.37-.99-.64-.64-.99-1.48-.99-2.36v-52.23c0-.91.37-1.76,1.04-2.4.63-.59,1.45-.92,2.31-.92h3.26c.38,0,.75.06,1.09.18.66-.14,1.38-.21,2.17-.21,1.27,0,2.49.23,3.63.69,1.13.45,2.15,1.09,3.04,1.91.96.91,1.73,1.96,2.3,3.15v.03c.59,1.24.88,2.61.88,4.07v45.77c0,.91-.35,1.74-.98,2.36-.51.5-1.16.82-1.87.93l-.19.03ZM130.72,63.14v2.11c.17-.31.37-.61.6-.89l-.52-1.22h-.08Z"/>
  <path class="cls-4" d="M138.6,116.83c-.86,0-1.65-.31-2.3-.88-.47-.42-.81-.97-.98-1.58-.15.52-.42,1-.8,1.4-.65.68-1.51,1.06-2.44,1.06h-3.26c-.91,0-1.77-.36-2.42-1.01-.64-.64-1-1.5-1-2.4v-52.23c0-.92.37-1.79,1.05-2.44.67-.62,1.48-.94,2.36-.94h3.26c.39,0,.76.06,1.1.18.67-.14,1.39-.21,2.16-.21,1.28,0,2.51.23,3.66.69,1.13.45,2.16,1.09,3.05,1.92.74.69,1.36,1.47,1.86,2.32l.08.04.39.84c.58,1.25.87,2.63.87,4.09v45.78c0,.93-.36,1.78-1.01,2.41-.52.5-1.17.83-1.88.94l-.4.03h-3.34ZM130.78,63.2v1.81c.15-.25.31-.48.5-.71l-.5-1.1Z"/>
  <path class="cls-2" d="M159.72,63.52c-.86-1.2-1.99-2.05-3.35-2.58-.33-.12-.67-.23-1.04-.31-.36-.08-.72-.13-1.11-.16h-6.99c-.43.05-.65.28-.65.71v52.23c0,.43.22.67.65.71h6.99c.38-.02.75-.07,1.11-.16.36-.08.71-.18,1.04-.31,1.36-.52,2.49-1.39,3.35-2.58.88-1.2,1.31-2.58,1.31-4.16v-39.26c0-1.58-.43-2.96-1.31-4.16ZM156.37,106.93c0,.69-.25,1.29-.75,1.79-.51.51-1.11.76-1.83.76h-2.54v-44.34h2.54c.72,0,1.32.25,1.83.75.5.51.75,1.1.75,1.8v39.26Z"/>
  <path class="cls-2" d="M179.86,65.26c-.29-.77-.67-1.47-1.15-2.1-.67-.84-1.49-1.5-2.46-1.97-.96-.48-2.02-.71-3.17-.71s-2.21.23-3.19.71c-.98.47-1.8,1.13-2.48,1.97-.47.62-.86,1.32-1.14,2.1-.29.77-.43,1.58-.43,2.42v39.26c0,.84.14,1.64.43,2.4.28.76.67,1.46,1.14,2.08.67.83,1.5,1.5,2.48,1.99.98.49,2.05.73,3.19.73s2.2-.24,3.17-.73c.97-.49,1.79-1.16,2.46-1.99.47-.62.86-1.31,1.15-2.08.28-.77.42-1.56.42-2.4v-39.26c0-.84-.14-1.65-.42-2.42ZM175.63,106.93c0,.69-.25,1.29-.76,1.79-.5.51-1.1.76-1.79.76-.72,0-1.33-.25-1.83-.76-.51-.5-.76-1.1-.76-1.79v-39.26c0-.7.25-1.29.76-1.8.5-.5,1.11-.75,1.83-.75s1.29.25,1.79.75c.51.51.76,1.1.76,1.8v39.26Z"/>
  <path class="cls-2" d="M73.84,71.43c-1.77-11.13-11.45-19.67-23.08-19.67-12.89,0-23.37,10.48-23.37,23.36v24.89c0,12.88,10.48,23.37,23.37,23.37,11.62,0,21.29-8.54,23.07-19.67.2-1.2.3-2.44.3-3.69v-24.89c0-1.25-.1-2.49-.29-3.69ZM73.22,100.01c0,12.38-10.08,22.45-22.45,22.45s-22.45-10.07-22.45-22.45v-24.89c0-12.38,10.07-22.45,22.45-22.45s22.45,10.07,22.45,22.45v24.89Z"/>
  <path class="cls-2" d="M50.77,58.57c-9.03,0-16.37,7.34-16.37,16.37v25.24c0,9.03,7.34,16.37,16.37,16.37s16.37-7.34,16.37-16.37v-25.24c0-9.02-7.34-16.37-16.37-16.37ZM66.22,100.18c0,8.53-6.93,15.45-15.45,15.45s-15.45-6.93-15.45-15.45v-3.44c.7.83,1.76,1.37,2.94,1.37,1.32,0,2.49-.66,3.18-1.68.4-.59.65-1.3.67-2.05,0-.03,0-.08,0-.12v-10.21c.44.55,1.17,1.24,2.24,2.24.03.03,2.99,2.81,5.1,3.4.2.05.36.08.41.09h.05c.27.01.54.03.82.02h.23c.22,0,.46,0,.68-.01h.05c.05-.01.22-.04.42-.09,2.07-.58,4.97-3.28,5.11-3.4,1.06-1,1.79-1.69,2.22-2.23v10.24c0,.79.26,1.53.67,2.14.7,1.02,1.86,1.68,3.19,1.68,1.17,0,2.23-.53,2.94-1.36v3.43ZM42.1,79.56v-4.77c0-.05,0-.11,0-.17.09-4.69,3.94-8.49,8.66-8.49s8.66,3.89,8.66,8.66v4.85h0v.29c-.01,1.53-.07,2.22-.37,2.99-.03.07-.05.12-.05.14-.21.48-1.09,1.32-2.44,2.58-.03.03-2.86,2.66-4.71,3.19-.13.03-.23.05-.28.06-.26,0-.5.01-.76,0h-.09c-.26,0-.52,0-.76,0-.05,0-.15-.03-.27-.06-1.85-.52-4.69-3.16-4.73-3.2-1.34-1.25-2.21-2.08-2.42-2.57-.01-.02-.03-.07-.05-.13-.3-.77-.36-1.46-.38-2.99,0-.14,0-.25-.01-.36ZM66.22,94.26c0,1.62-1.32,2.95-2.94,2.95s-2.92-1.3-2.94-2.91v-14.63s0,0,0,0v-4.88c0-5.28-4.3-9.57-9.57-9.57s-9.49,4.2-9.57,9.4c0,.05,0,.11,0,.15v19.57c-.03,1.59-1.34,2.87-2.93,2.87s-2.94-1.32-2.94-2.95v-19.32c0-8.52,6.93-15.45,15.45-15.45s15.45,6.93,15.45,15.45v19.32Z"/>
  <path class="cls-4" d="M47.18,80.16c-2.45,0-4.18-1.39-4.5-1.67l-1.99-1.73,4.15-4.79,1.99,1.7s.19.13.35.13c.02,0,.05,0,.07-.01l2.38-1.12,2.7,5.76-2.38,1.12c-.88.41-1.81.62-2.76.62"/>
  <path class="cls-4" d="M47.18,80.21c-2.38,0-4.06-1.28-4.52-1.67l-2.02-1.72,2.48-2.94,1.72-1.99,1.99,1.72s.28.17.38.13l2.37-1.11,1.68,3.44,1.1,2.34-2.36,1.16c-.93.44-1.87.65-2.82.65"/>
  <path class="cls-4" d="M54.41,80.16c-.95,0-1.88-.21-2.76-.62l-2.38-1.12,2.7-5.76,2.38,1.12c.14.07.44-.14.45-.15l1.99-1.71,2.39,2.85,1.72,1.99-1.99,1.72c-.32.28-2.06,1.67-4.5,1.67"/>
  <path class="cls-4" d="M54.41,80.21c-.95,0-1.89-.21-2.77-.63l-2.39-1.16,2.7-5.81,2.37,1.09c.18.08.45-.1.45-.1l1.99-1.72,4.24,4.91-2.07,1.75c-.45.39-2.14,1.67-4.51,1.67"/>
  <path class="cls-4" d="M50.73,78.26l-4.58-1.56-1.71,1.4-4.04-4.92,2.03-1.67c1.85-1.52,3.99-1.5,5.4-.95l4.93,1.67-2.04,6.03Z"/>
  <path class="cls-4" d="M50.77,78.3l-4.61-1.54-1.68,1.39-2.47-2.93-1.68-2.05,2.06-1.67c1.89-1.55,4.05-1.53,5.48-.98l4.94,1.67-2.03,6.1Z"/>
  <path class="cls-4" d="M50.8,78.26l-2.04-6.03,4.93-1.67c1.42-.54,3.55-.57,5.4.96l2.03,1.67-4.04,4.91-1.7-1.4-4.59,1.55Z"/>
  <path class="cls-4" d="M50.78,78.31l-2.09-6.1,4.97-1.7c1.43-.55,3.58-.57,5.45.96l2.03,1.67-2.39,2.99-1.67,2.04-1.72-1.41-4.59,1.55Z"/>
  <path class="cls-4" d="M50.79,87.9c-1.94,0-3.79-.98-4.93-2.61l-2.39-3.43,3.93-1.39c.28-.1.6-.24.93-.4l.18-.1c.48-.24,1.14-.57,2.13-.59,1.05-.04,1.86.37,2.25.57l.17.09c.22.11.48.2.76.26l4.49,1.04-2.51,3.78c-.38.6-1.72,2.38-4.23,2.71-.25.04-.52.06-.77.06"/>
  <path class="cls-4" d="M50.79,87.95c-1.96,0-3.82-.98-4.97-2.63l-2.43-3.49,4-1.41c.27-.1.59-.24.93-.4l.18-.1c.49-.24,1.16-.58,2.16-.59,1.06-.03,1.88.38,2.27.58l.16.08c.23.11.48.2.75.26l4.56,1.06-2.55,3.85c-.39.61-1.73,2.4-4.27,2.74-.25.04-.52.06-.77.06"/>
  <path class="cls-4" d="M50.88,83.74c-1.22,0-2.5-.47-3.42-1.26l-1.99-1.71,4.1-4.81,1.26,1.05,1.25-1.07,4.13,4.83-2,1.71c-.96.82-2.11,1.26-3.33,1.26M50.88,78.48c-.06,0-.11.02-.13.03l.06.07.08-.09h0Z"/>
  <path class="cls-4" d="M50.88,83.79c-1.77,0-3-.89-3.45-1.27l-1.99-1.71,2.44-2.94,1.7-2,1.26,1.06,1.21-1.03,2.52,2.88,1.7,1.99-2.02,1.74c-.98.84-2.14,1.28-3.36,1.28"/>
  <rect class="cls-4" x="47.18" y="83.49" width="7.23" height="6.36"/>
  <rect class="cls-4" x="47.13" y="83.44" width="7.33" height="6.46"/>
  <path class="cls-4" d="M74.13,75.12v24.89c0,1.26-.1,2.49-.3,3.69-1.77,11.14-11.45,19.67-23.07,19.67-12.89,0-23.37-10.49-23.37-23.37v-24.89c0-12.88,10.48-23.36,23.37-23.36,11.62,0,21.3,8.53,23.08,19.67.19,1.2.29,2.44.29,3.69"/>
  <path class="cls-5" d="M104.89,65.08c-.38-.87-.89-1.64-1.54-2.28-.65-.65-1.41-1.16-2.28-1.54-.87-.38-1.81-.57-2.81-.57-.93,0-1.82.17-2.65.5-.84.33-1.58.8-2.23,1.4-.64-.6-1.38-1.06-2.22-1.4-.84-.33-1.72-.5-2.65-.5-1.03,0-1.9.15-2.62.47-.12-.29-.33-.43-.64-.43h-3.27c-.19,0-.36.07-.5.2-.14.12-.22.29-.22.48v52.01c0,.19.07.36.22.5.14.14.31.22.5.22h3.27c.18,0,.35-.07.48-.22.12-.14.2-.31.2-.5v-45.53c0-.7.25-1.3.75-1.81.5-.52,1.11-.77,1.83-.77s1.29.26,1.8.77c.5.52.75,1.11.75,1.81v45.92c0,.46.22.68.68.68h3.37c.19-.02.34-.1.45-.23.11-.13.16-.28.16-.45v-45.92c0-.7.26-1.3.76-1.81.51-.52,1.11-.77,1.8-.77s1.32.26,1.83.77c.5.52.75,1.11.75,1.81v45.92c0,.46.23.68.68.68h3.27c.18,0,.34-.06.46-.17.13-.12.2-.27.22-.43v-45.99c0-1.01-.19-1.95-.57-2.81"/>
  <path class="cls-5" d="M123.57,65.26c-.29-.77-.67-1.47-1.15-2.1-.67-.84-1.49-1.5-2.45-1.97-.97-.48-2.03-.71-3.18-.71s-2.21.23-3.19.71c-.98.47-1.8,1.13-2.47,1.97-.48.62-.86,1.32-1.15,2.1-.29.77-.43,1.58-.43,2.42v39.26c0,.84.14,1.64.43,2.4.28.76.67,1.46,1.15,2.08.67.83,1.49,1.5,2.47,1.99.98.49,2.05.73,3.19.73s2.2-.24,3.18-.73c.96-.49,1.79-1.16,2.45-1.99.47-.62.86-1.31,1.15-2.08.28-.77.43-1.56.43-2.4v-39.26c0-.84-.14-1.65-.43-2.42M119.34,106.93c0,.69-.25,1.29-.75,1.79-.51.51-1.11.76-1.8.76s-1.33-.25-1.83-.76c-.5-.5-.75-1.1-.75-1.79v-39.26c0-.7.25-1.29.75-1.8.5-.5,1.11-.75,1.83-.75s1.29.25,1.8.75c.5.51.75,1.1.75,1.8v39.26Z"/>
  <path class="cls-5" d="M159.72,63.52c-.86-1.2-1.99-2.05-3.35-2.58-.33-.12-.67-.23-1.04-.31-.36-.08-.72-.13-1.11-.16h-6.99c-.43.05-.65.28-.65.71v52.23c0,.43.22.67.65.71h6.99c.38-.02.75-.07,1.11-.16.36-.08.71-.18,1.04-.31,1.36-.52,2.49-1.39,3.35-2.58.88-1.2,1.31-2.58,1.31-4.16v-39.26c0-1.58-.43-2.96-1.31-4.16M156.37,106.93c0,.69-.25,1.29-.75,1.79-.51.51-1.11.76-1.83.76h-2.54v-44.34h2.54c.72,0,1.32.25,1.83.75.5.51.75,1.1.75,1.8v39.26Z"/>
  <path class="cls-5" d="M179.86,65.26c-.29-.77-.67-1.47-1.15-2.1-.67-.84-1.49-1.5-2.46-1.97-.96-.48-2.02-.71-3.17-.71s-2.21.23-3.19.71c-.98.47-1.8,1.13-2.48,1.97-.47.62-.86,1.32-1.14,2.1-.29.77-.43,1.58-.43,2.42v39.26c0,.84.14,1.64.43,2.4.28.76.67,1.46,1.14,2.08.67.83,1.5,1.5,2.48,1.99.98.49,2.05.73,3.19.73s2.2-.24,3.17-.73c.97-.49,1.79-1.16,2.46-1.99.47-.62.86-1.31,1.15-2.08.28-.77.42-1.56.42-2.4v-39.26c0-.84-.14-1.65-.42-2.42M175.63,106.93c0,.69-.25,1.29-.76,1.79-.5.51-1.1.76-1.79.76-.72,0-1.33-.25-1.83-.76-.51-.5-.76-1.1-.76-1.79v-39.26c0-.7.25-1.29.76-1.8.5-.5,1.11-.75,1.83-.75s1.29.25,1.79.75c.51.51.76,1.1.76,1.8v39.26Z"/>
  <path class="cls-5" d="M73.84,71.43c-1.77-11.13-11.45-19.67-23.08-19.67-12.89,0-23.37,10.48-23.37,23.36v24.89c0,12.88,10.48,23.37,23.37,23.37,11.62,0,21.29-8.54,23.07-19.67.2-1.2.3-2.44.3-3.69v-24.89c0-1.25-.1-2.49-.29-3.69M73.22,100.01c0,12.38-10.08,22.45-22.45,22.45s-22.45-10.07-22.45-22.45v-24.89c0-12.38,10.07-22.45,22.45-22.45s22.45,10.07,22.45,22.45v24.89Z"/>
  <path class="cls-1" d="M73.84,71.43c-1.77-11.13-11.45-19.67-23.08-19.67-12.89,0-23.37,10.48-23.37,23.36v24.89c0,12.88,10.48,23.37,23.37,23.37,11.62,0,21.29-8.54,23.07-19.67.2-1.2.3-2.44.3-3.69v-24.89c0-1.25-.1-2.49-.29-3.69ZM73.22,100.01c0,12.38-10.08,22.45-22.45,22.45s-22.45-10.07-22.45-22.45v-24.89c0-12.38,10.07-22.45,22.45-22.45s22.45,10.07,22.45,22.45v24.89Z"/>
  <path class="cls-5" d="M50.77,58.57c-9.03,0-16.37,7.34-16.37,16.37v25.24c0,9.03,7.34,16.37,16.37,16.37s16.37-7.34,16.37-16.37v-25.24c0-9.02-7.34-16.37-16.37-16.37M66.22,100.18c0,8.53-6.93,15.45-15.45,15.45s-15.45-6.93-15.45-15.45v-3.44c.7.83,1.76,1.37,2.94,1.37,1.32,0,2.49-.66,3.18-1.68.4-.59.65-1.3.67-2.05,0-.03,0-.08,0-.12v-10.21c.44.55,1.17,1.24,2.24,2.24.03.03,2.99,2.81,5.1,3.4.2.05.36.08.41.09h.05c.27.01.54.03.82.02h.23c.22,0,.46,0,.68-.01h.05c.05-.01.22-.04.42-.09,2.07-.58,4.97-3.28,5.11-3.4,1.06-1,1.79-1.69,2.22-2.23v10.24c0,.79.26,1.53.67,2.14.7,1.02,1.86,1.68,3.19,1.68,1.17,0,2.23-.53,2.94-1.36v3.43ZM42.1,79.56v-4.77c0-.05,0-.11,0-.17.09-4.69,3.94-8.49,8.66-8.49s8.66,3.89,8.66,8.66v4.85h0v.29c-.01,1.53-.07,2.22-.37,2.99-.03.07-.05.12-.05.14-.21.48-1.09,1.32-2.44,2.58-.03.03-2.86,2.66-4.71,3.19-.13.03-.23.05-.28.06-.26,0-.5.01-.76,0h-.09c-.26,0-.52,0-.76,0-.05,0-.15-.03-.27-.06-1.85-.52-4.69-3.16-4.73-3.2-1.34-1.25-2.21-2.08-2.42-2.57-.01-.02-.03-.07-.05-.13-.3-.77-.36-1.46-.38-2.99,0-.14,0-.25-.01-.36ZM66.22,94.26c0,1.62-1.32,2.95-2.94,2.95s-2.92-1.3-2.94-2.91v-14.63s0,0,0,0v-4.88c0-5.28-4.3-9.57-9.57-9.57s-9.49,4.2-9.57,9.4c0,.05,0,.11,0,.15v19.57c-.03,1.59-1.34,2.87-2.93,2.87s-2.94-1.32-2.94-2.95v-19.32c0-8.52,6.93-15.45,15.45-15.45s15.45,6.93,15.45,15.45v19.32Z"/>
  <path class="cls-1" d="M50.77,58.57c-9.03,0-16.37,7.34-16.37,16.37v25.24c0,9.03,7.34,16.37,16.37,16.37s16.37-7.34,16.37-16.37v-25.24c0-9.02-7.34-16.37-16.37-16.37ZM66.22,100.18c0,8.53-6.93,15.45-15.45,15.45s-15.45-6.93-15.45-15.45v-3.44c.7.83,1.76,1.37,2.94,1.37,1.32,0,2.49-.66,3.18-1.68.4-.59.65-1.3.67-2.05,0-.03,0-.08,0-.12v-10.21c.44.55,1.17,1.24,2.24,2.24.03.03,2.99,2.81,5.1,3.4.2.05.36.08.41.09h.05c.27.01.54.03.82.02h.23c.22,0,.46,0,.68-.01h.05c.05-.01.22-.04.42-.09,2.07-.58,4.97-3.28,5.11-3.4,1.06-1,1.79-1.69,2.22-2.23v10.24c0,.79.26,1.53.67,2.14.7,1.02,1.86,1.68,3.19,1.68,1.17,0,2.23-.53,2.94-1.36v3.43ZM42.1,79.56v-4.77c0-.05,0-.11,0-.17.09-4.69,3.94-8.49,8.66-8.49s8.66,3.89,8.66,8.66v4.85h0v.29c-.01,1.53-.07,2.22-.37,2.99-.03.07-.05.12-.05.14-.21.48-1.09,1.32-2.44,2.58-.03.03-2.86,2.66-4.71,3.19-.13.03-.23.05-.28.06-.26,0-.5.01-.76,0h-.09c-.26,0-.52,0-.76,0-.05,0-.15-.03-.27-.06-1.85-.52-4.69-3.16-4.73-3.2-1.34-1.25-2.21-2.08-2.42-2.57-.01-.02-.03-.07-.05-.13-.3-.77-.36-1.46-.38-2.99,0-.14,0-.25-.01-.36ZM66.22,94.26c0,1.62-1.32,2.95-2.94,2.95s-2.92-1.3-2.94-2.91v-14.63s0,0,0,0v-4.88c0-5.28-4.3-9.57-9.57-9.57s-9.49,4.2-9.57,9.4c0,.05,0,.11,0,.15v19.57c-.03,1.59-1.34,2.87-2.93,2.87s-2.94-1.32-2.94-2.95v-19.32c0-8.52,6.93-15.45,15.45-15.45s15.45,6.93,15.45,15.45v19.32Z"/>
  <path class="cls-5" d="M48.35,76.16c-1.69.79-3.17-.44-3.24-.5l-.36.42-.36.41c.06.05,1.21,1.03,2.78,1.03.51,0,1.06-.1,1.64-.37l-.47-.99Z"/>
  <path class="cls-5" d="M48.88,77.18l-.05.02c-.53.25-1.09.38-1.66.38-1.55,0-2.69-.94-2.81-1.04l-.04-.03.78-.91.04.03c.06.05,1.52,1.27,3.18.49l.04-.02.02.04.49,1.04ZM44.46,76.49c.24.19,1.3.99,2.71.99.54,0,1.06-.12,1.57-.35l-.42-.9c-1.58.71-2.96-.29-3.21-.49l-.65.75Z"/>
  <path class="cls-5" d="M53.24,76.16l-.47.99c.58.27,1.13.37,1.64.37,1.57,0,2.72-.98,2.78-1.03l-.72-.83c-.06.05-1.54,1.29-3.24.5"/>
  <path class="cls-5" d="M57.27,76.5l-.04.03c-.12.11-1.26,1.04-2.81,1.04-.57,0-1.12-.13-1.66-.38l-.04-.02.02-.05.49-1.04.05.02c1.68.79,3.12-.44,3.18-.49l.04-.03.78.9ZM52.84,77.13c.51.23,1.04.35,1.57.35,1.41,0,2.48-.79,2.71-.99l-.65-.75c-.25.2-1.62,1.2-3.21.49l-.42.9Z"/>
  <path class="cls-5" d="M46.52,74.05l2.56.87.35-1.04-2.49-.84c-.23-.09-1.54-.55-2.83.51l.7.85c.85-.7,1.69-.36,1.72-.35"/>
  <path class="cls-5" d="M49.5,73.85l-.02.05-.37,1.09-.05-.02-2.56-.87s-.84-.34-1.67.34l-.04.03-.76-.92.04-.03c1.31-1.08,2.63-.62,2.88-.52l2.54.86ZM49.05,74.86l.32-.94-2.45-.83c-.24-.1-1.49-.53-2.75.47l.63.77c.85-.67,1.68-.35,1.73-.33l2.51.85Z"/>
  <path class="cls-5" d="M54.96,74.07l.04-.02s.87-.36,1.72.35l.7-.85c-1.29-1.06-2.6-.61-2.83-.52l-2.49.84.35,1.04,2.51-.85Z"/>
  <path class="cls-3" d="M57.49,73.54l-.76.92-.04-.03c-.8-.66-1.58-.37-1.67-.34l-.05.02-2.56.87-.02-.05-.37-1.09.05-.02,2.49-.84c.25-.1,1.57-.56,2.88.52l.04.03ZM56.72,74.33l.63-.77c-1.26-1-2.5-.57-2.74-.48l-2.45.83.32.94,2.51-.85c.09-.04.9-.33,1.73.32Z"/>
  <path class="cls-5" d="M53.24,82.87c-.48-.11-.92-.26-1.33-.46-.08-.03-.15-.07-.22-.11-.3-.15-.6-.3-1.01-.28-.39,0-.64.13-1,.31l-.17.09c-.4.19-.82.37-1.25.53l-.67.24.41.59c.66.93,1.7,1.49,2.78,1.49.14,0,.29-.01.42-.03,1.4-.19,2.17-1.22,2.37-1.54l.43-.65-.77-.18Z"/>
  <path class="cls-5" d="M54.09,83.01l-.47.71c-.14.22-.92,1.36-2.41,1.56-.16.02-.3.03-.43.03-1.1,0-2.16-.57-2.82-1.51l-.45-.64.74-.26c.41-.15.82-.33,1.24-.53l.17-.09c.36-.18.62-.31,1.02-.32.43-.01.75.15,1.03.29.08.05.15.08.21.11.41.2.85.35,1.32.45l.84.19ZM47.67,83.21l.37.54c.65.92,1.67,1.47,2.74,1.47.12,0,.26-.01.42-.03,1.44-.19,2.2-1.29,2.34-1.51l.39-.59-.7-.16c-.48-.11-.93-.26-1.34-.46-.07-.03-.15-.07-.22-.11-.27-.14-.57-.29-.98-.28-.38,0-.62.12-.98.3l-.17.09c-.42.2-.84.38-1.25.53l-.61.22Z"/>
  <path class="cls-5" d="M50.88,81.11c.51,0,1.07-.17,1.61-.63l-.71-.83c-.91.78-1.8.08-1.9,0l-.71.84c.34.29.97.63,1.71.63"/>
  <path class="cls-5" d="M52.57,80.49l-.04.03c-.5.42-1.05.64-1.65.64-.73,0-1.38-.33-1.74-.64l-.04-.03.77-.91.04.03c.09.08.95.75,1.83,0l.04-.03.78.91ZM49.25,80.48c.35.29.96.58,1.64.58.56,0,1.08-.2,1.54-.58l-.65-.76c-.85.69-1.68.15-1.89,0l-.65.76Z"/>
  <rect class="cls-5" x="49.81" y="86.12" width="1.96" height="1.1"/>
  <path class="cls-5" d="M51.83,87.27h-2.06v-1.2h2.06v1.2ZM51.73,86.17h-1.86v1h1.86v-1Z"/>
  <path class="cls-5" d="M141.91,64.72c-.42-.89-.99-1.67-1.7-2.34-.65-.6-1.39-1.06-2.23-1.4-.83-.33-1.72-.5-2.65-.5-1.02,0-1.9.15-2.61.47-.12-.29-.34-.43-.65-.43h-3.26c-.2,0-.37.07-.51.2-.14.13-.22.29-.22.48v52.23c0,.19.07.36.22.5.14.14.31.22.51.22h3.26c.19,0,.35-.07.48-.22.13-.14.2-.31.2-.5v-45.74c0-.7.25-1.3.75-1.81.51-.51,1.11-.77,1.83-.77s1.3.26,1.8.77c.5.52.76,1.11.76,1.81v45.77c0,.19.07.36.21.48.15.13.32.2.51.2h3.33c.17-.02.31-.1.42-.22.12-.12.18-.27.18-.47v-45.77c0-1.07-.21-2.06-.62-2.96"/>
</svg>