<?xml version="1.0" encoding="UTF-8"?>
<svg id="Layer_1" data-name="Layer 1" xmlns="http://www.w3.org/2000/svg" viewBox="0 0 215.29 176.94">
  <defs>
    <style>
      .cls-1 {
        fill: #1d1d1b;
      }

      .cls-2 {
        fill: #fdc94a;
      }
    </style>
  </defs>
  <path class="cls-2" d="M162.32,102.46c-1.14-1.51-.91-3.55.53-4.76.21-.17.42-.35.63-.53,2.57-2.18,4.04-5.36,4.04-8.72,0-3.36-1.47-6.54-4.04-8.71-.21-.18-.42-.35-.63-.53-1.45-1.21-1.68-3.25-.53-4.76l.48-.64c4.15-5.52,2.44-13.69-4.48-17.14-1.91-.96-2.71-2.97-1.89-4.79,3.58-7.97-3.01-15.56-15-11.24-12.85,3.39-23.53,9.76-27.59,12.59-.72.5-2.16,1.53-2.85,2.08-1.02.81-2.02,1.62-3.34,1.64-1.31-.02-2.32-.83-3.34-1.64-.69-.55-2.13-1.58-2.85-2.08-4.07-2.83-14.74-9.19-27.6-12.58-11.99-4.32-18.58,3.28-15,11.25.82,1.82.02,3.83-1.89,4.79-6.92,3.45-8.63,11.62-4.48,17.14l.48.64c1.14,1.51.91,3.55-.53,4.76-.21.18-.42.35-.62.53-2.57,2.18-4.04,5.36-4.04,8.71,0,3.36,1.47,6.54,4.04,8.71.21.18.42.35.63.53,1.45,1.21,1.68,3.25.53,4.76l-.48.64c-4.15,5.52-2.44,13.69,4.48,17.14,1.92.96,2.71,2.97,1.89,4.79-3.58,7.97,3.01,15.56,15,11.24,12.85-3.39,23.53-9.76,27.6-12.59.72-.5,2.16-1.53,2.85-2.08,1.02-.81,2.02-1.62,3.34-1.64,1.31.02,2.32.83,3.34,1.64.69.55,2.13,1.58,2.85,2.08,4.07,2.83,14.74,9.19,27.6,12.58,12,4.32,18.58-3.28,15-11.25-.82-1.82-.02-3.83,1.89-4.79,6.92-3.45,8.63-11.62,4.48-17.14l-.48-.64Z"/>
  <path class="cls-1" d="M94.09,70.79c.23-1.32.27-2.66.1-4-.16-1.34-.53-2.63-1.09-3.85-.57-1.21-1.33-2.33-2.26-3.33-.94-1-2.09-1.82-3.41-2.46-1.32-.63-2.75-1.02-4.24-1.15-1.49-.13-2.99-.03-4.47.28-1.49.31-2.92.83-4.26,1.52-1.34.7-2.55,1.55-3.59,2.53-.91.82-1.73,1.78-2.43,2.87-.7,1.08-1.26,2.24-1.66,3.44-.4,1.2-.64,2.46-.72,3.74-.08,1.28.02,2.55.3,3.77.42,1.76,1.23,3.39,2.44,4.85.09.09.18.15.22.17.22.17.5.24.83.2.29-.04.55-.11.8-.24.23-.16.38-.29.44-.4.28-.32.38-.69.3-1.06-.08-.33-.23-.65-.45-.94-.85-1.12-1.41-2.45-1.68-3.94-.3-1.88-.08-3.79.65-5.66.74-1.88,1.81-3.5,3.17-4.81.88-.82,1.91-1.52,3.08-2.08,1.17-.56,2.41-.93,3.68-1.1,1.27-.17,2.55-.15,3.79.05,1.24.21,2.39.65,3.42,1.32.84.57,1.58,1.25,2.19,2.02.6.76,1.08,1.59,1.43,2.46.35.87.57,1.8.68,2.76.1.95.06,1.9-.13,2.81-.38,1.95-1.08,3.52-2.07,4.66-1,1.14-2.21,1.98-3.59,2.51-1.21.43-2.58.69-4.07.76-.01,0-.02,0-.03,0-.78,0-1.32-.18-1.63-.55-.31-.37-.4-.94-.27-1.71.16-.76.35-1.54.56-2.32.22-.79.47-1.67.76-2.62.27-.87.52-1.6.74-2.23.22-.64.48-1.21.75-1.72.27-.5.6-.98.99-1.41.39-.44.88-.89,1.48-1.37.28-.28.41-.62.41-.99,0-.37-.11-.7-.33-.97-.22-.27-.52-.46-.91-.55-.4-.1-.83,0-1.27.25-.76.42-1.41.98-1.94,1.68-.52.68-.98,1.42-1.36,2.2-.38.78-.72,1.6-1,2.44-.28.83-.52,1.63-.72,2.37-.46,1.71-.91,3.66-1.32,5.78-.42,2.11-.94,4.25-1.56,6.35-.62,2.08-1.38,4.05-2.28,5.86-.89,1.78-2.03,3.22-3.38,4.26-.83.62-1.76,1.04-2.76,1.25-.99.21-2.06.16-3.19-.15-.42-.12-.78-.05-1.07.2-.28.25-.44.57-.45.97-.02.39.11.77.37,1.14.27.38.76.65,1.44.79.69.17,1.37.26,2.03.26.63,0,1.24-.08,1.84-.23,1.22-.31,2.39-.87,3.47-1.66,1.04-.75,1.97-1.63,2.74-2.61.77-.99,1.44-2.04,1.99-3.13.55-1.09,1.02-2.26,1.42-3.47.39-1.2.74-2.42,1.04-3.63.15-.6.44-1,.89-1.23.48-.24,1.02-.34,1.61-.31,2.1.05,4.05-.23,5.84-.85,1.93-.69,3.6-1.86,4.96-3.48,1.36-1.61,2.29-3.74,2.75-6.31"/>
  <path class="cls-1" d="M150.09,81.66c-.11-.25-.28-.44-.51-.56-.22-.12-.46-.18-.71-.18-.31,0-.54.15-.68.43-.3.54-.67,1.21-1.12,2.04-.43.8-.91,1.6-1.43,2.37-.5.76-1.04,1.43-1.61,2-.53.54-1.08.83-1.62.86-.3.02-.52-.04-.68-.2-.28-.27-.41-.83-.38-1.63.06-.55.16-1.17.29-1.84.13-.66.28-1.37.44-2.09.2-.78.41-1.54.64-2.27.22-.73.45-1.44.68-2.09.23-.66.43-1.24.59-1.74.15-.47.28-.84.39-1.09.19-.49.22-.9.1-1.24-.12-.33-.31-.58-.58-.75-.25-.15-.54-.23-.86-.23-.38,0-.65.1-.86.29-.16.09-.35.19-.59.29-.22.09-.54-.05-.76-.18-.28-.17-.6-.32-.98-.44-.36-.12-.74-.21-1.17-.28-.49-.07-1.03-.05-1.63.06-.59.11-1.19.32-1.77.64-1.06.59-2.03,1.57-2.87,2.93-.84,1.34-1.49,2.82-1.95,4.4-.03.1-.05.19-.07.28-.01.07-.03.13-.03.15-.25.45-.53.98-.86,1.62-.35.68-.75,1.36-1.21,2.02-.55.92-1.14,1.72-1.76,2.37-.59.63-1.19.98-1.8,1.04-.64.07-.81-.22-.9-.49-.09-.28-.14-.69-.15-1.21.06-1.14.23-2.28.52-3.38.29-1.12.59-2.23.88-3.33.23-.77.47-1.61.74-2.54.26-.92.54-1.86.84-2.83l.74-2.58c.05-.26.13-.43.24-.5.13-.08.31-.12.52-.12l1.79.04c.57.04,1-.09,1.28-.38.27-.27.43-.59.46-.95.04-.36-.06-.7-.27-1.01-.23-.33-.59-.5-1.06-.5,0,0,0,0-.01,0h-1.65c-.18,0-.22-.03-.22-.03-.02-.1-.01-.21.04-.36.36-1.2.66-2.21.89-3.01.3-1.05.4-1.35.44-1.44.22-.6.23-1.09.03-1.47-.2-.37-.49-.61-.85-.71-.35-.09-.72-.06-1.1.09-.41.17-.67.49-.79.97-.06.3-.25.94-.54,1.91-.3.99-.64,2.17-1.03,3.53-.07.22-.14.32-.17.37,0,0-.11.08-.6.08h-2.2c-.47.02-.84.16-1.1.45-.26.28-.38.6-.38.94,0,.34.13.66.36.93.24.28.64.44,1.17.48l1.38.04c.31.04.47.08.52.08,0,0,.03.06-.01.25-.13.41-.25.82-.35,1.22-.09.38-.21.78-.34,1.2-.29,1.07-.58,2.08-.86,3.03-.28.95-.53,1.81-.76,2.59-.05.19-.1.39-.15.58-.03.13-.07.27-.09.36l-.03.04c-.14.22-.28.45-.41.7-.13.25-.28.5-.44.77-.46.8-.95,1.58-1.43,2.3-.49.72-1.06,1.41-1.69,2.01-.17.13-.23.12-.24.11-.09-.13-.08-.21-.04-.31.2-.83.26-1.65.17-2.46-.09-.78-.23-1.6-.42-2.43-.19-.82-.37-1.63-.54-2.45-.17-.79-.22-1.62-.16-2.46.03-.53.09-1.06.16-1.58.08-.53.2-1.11.36-1.73.11-.46.08-.86-.1-1.19-.18-.33-.43-.57-.74-.7-.32-.14-.64-.16-.98-.08-.35.08-.62.3-.78.62l-6.29,11.53c-.44.81-.92,1.6-1.43,2.37-.5.75-1.04,1.42-1.61,2-.53.54-1.08.83-1.62.87-.33.02-.48-.07-.56-.14-.23-.22-.32-.75-.28-1.69.06-.57.16-1.18.29-1.84.13-.66.27-1.36.44-2.09.2-.78.41-1.54.63-2.27.21-.71.45-1.41.69-2.1.23-.65.43-1.23.59-1.74.16-.49.29-.86.39-1.09.18-.49.21-.91.09-1.24-.12-.33-.31-.58-.58-.75-.25-.15-.54-.23-.86-.23-.35,0-.65.1-.86.29-.15.09-.34.19-.59.29-.18.07-.44,0-.77-.18-.28-.17-.61-.32-.98-.44-.36-.11-.75-.21-1.17-.28-.5-.07-1.05-.05-1.63.06-.59.11-1.19.32-1.77.64-1.06.59-2.03,1.57-2.88,2.92-.83,1.34-1.49,2.82-1.95,4.4-.46,1.49-.7,2.96-.69,4.38,0,1.44.33,2.67.96,3.68.46.7,1.06,1.24,1.78,1.6.73.37,1.55.45,2.45.23,1.03-.28,1.95-.78,2.73-1.46.36-.27.68-.43.93-.46.12-.01.37.06.78.69.4.57.87.96,1.42,1.16.35.13.63.19.95.19.18,0,.38-.02.6-.06.91-.14,1.76-.56,2.52-1.25.74-.66,1.42-1.44,2.03-2.31.6-.85,1.14-1.75,1.63-2.66.18-.35.34-.64.5-.93l2.82-4.74c.09-.16.23-.22.4-.23.14,0,.19.05.21.2.14.74.32,1.49.54,2.23.22.71.39,1.45.51,2.17.12.71.15,1.39.09,2.04-.06.62-.3,1.21-.69,1.73-.48.61-1.07.94-1.81,1.02-.53.06-.87-.04-1.46-.79-.28-.27-.57-.42-.88-.44-.29-.02-.57.04-.81.19-.25.15-.43.39-.53.71-.1.32-.07.66.09,1.02.24.55.63,1.01,1.19,1.39.39.27.84.39,1.48.52.74.14,1.34.19,2,.13.72-.05,1.4-.21,2.02-.45.81-.31,1.6-.75,2.33-1.3.73-.55,1.41-1.16,2.02-1.82.29-.31.56-.63.81-.96-.06.88.04,1.65.28,2.3.29.79.76,1.37,1.41,1.74.65.38,1.42.49,2.26.34,1.11-.18,2.14-.76,3.06-1.74.75-.8,1.42-1.67,2.01-2.57.14.93.4,1.69.8,2.32.46.7,1.06,1.24,1.78,1.6.73.37,1.56.45,2.45.23,1.03-.28,1.95-.78,2.72-1.46.36-.27.68-.43.93-.46.1-.01.37.06.78.69.4.57.87.96,1.42,1.16.54.19,1.14.24,1.77.13.91-.14,1.76-.56,2.52-1.25.74-.67,1.42-1.44,2.03-2.3.59-.85,1.14-1.75,1.63-2.67.48-.9.9-1.69,1.26-2.35.21-.37.16-.67.08-.86M139.68,79.45c-.13,1.01-.36,2.05-.68,3.1-.39,1.37-.96,2.62-1.72,3.69-.75,1.06-1.53,1.78-2.33,2.14-.5.24-.89.28-1.19.11-.32-.17-.58-.44-.75-.79-.32-.66-.43-1.56-.34-2.68.09-1.14.33-2.32.72-3.5.35-1.09.78-2.1,1.27-3.02.48-.9.99-1.57,1.52-1.98.63-.45,1.21-.67,1.72-.67.23,0,.45.04.66.14.47.17.78.51.97,1.05.22.62.28,1.44.15,2.42ZM101.23,79.67c-.12.99-.35,2.03-.68,3.1-.39,1.37-.96,2.62-1.72,3.69-.75,1.06-1.53,1.78-2.32,2.14-.49.23-.89.27-1.19.11-.33-.18-.57-.43-.75-.79-.32-.66-.43-1.56-.34-2.68.09-1.15.33-2.33.72-3.5.35-1.08.78-2.1,1.27-3.02.48-.9.99-1.57,1.52-1.98.64-.45,1.2-.68,1.71-.68.24,0,.46.05.67.14.47.17.78.51.97,1.05.22.63.28,1.45.15,2.42Z"/>
  <path class="cls-1" d="M150.7,79.57c-1.4,0-2.55-1.13-2.56-2.53,0-1.4,1.13-2.55,2.53-2.56,1.4,0,2.55,1.13,2.56,2.53,0,1.4-1.13,2.55-2.53,2.56M150.68,74.85c-1.2,0-2.18.99-2.17,2.2,0,1.2.99,2.18,2.2,2.17,1.2,0,2.18-.99,2.17-2.2,0-1.2-.99-2.18-2.2-2.17Z"/>
  <path class="cls-1" d="M151.79,78.25h-.53s-.63-.92-.63-.92h-.35s0,.93,0,.93h-.45s-.01-2.61-.01-2.61h.96c.3,0,.53.07.67.22.15.15.22.36.23.61,0,.42-.19.68-.57.79h0s.68.98.68.98ZM150.27,76.04v.88s.43,0,.43,0c.17,0,.3-.04.39-.12.09-.08.14-.19.13-.32,0-.14-.04-.25-.13-.33-.09-.08-.21-.11-.37-.11h-.45Z"/>
  <path class="cls-1" d="M104.39,106.24c.71,1.02,1.38,1.74,2.01,2.17,1.01.7,2.09,1.05,3.25,1.05.88,0,1.6-.25,2.17-.76.44-.39.72-.82.83-1.31.12-.51.02-.96-.3-1.35-.34-.41-.75-.74-1.21-.98l-2.67-1.37c-2.05-1.07-2.85-2.59-2.4-4.57.33-1.42,1.23-2.66,2.72-3.73.91-.66,2-1.16,3.28-1.52,1.06-.31,2.11-.46,3.17-.46,1.73,0,3.14.3,4.21.9l-1.02,4.43c-.57-.75-1.09-1.26-1.56-1.55-.78-.48-1.69-.71-2.72-.71-.8,0-1.41.19-1.82.58-.34.32-.55.66-.63,1-.06.27-.02.56.12.86.25.5,1.11,1.06,2.58,1.66,2.11.85,3.41,1.89,3.89,3.11.31.82.36,1.7.14,2.66-.38,1.66-1.34,3.04-2.88,4.14-.88.63-1.97,1.12-3.25,1.48-1.05.3-2.1.44-3.15.44-2.1,0-4.06-.42-5.88-1.27l1.13-4.91Z"/>
  <path class="cls-1" d="M88.67,97.08l.77-3.34h-13.8c.23.51.37.88.44,1.14.17.66.16,1.43-.03,2.29l-2.24,9.69c-.19.84-.7,2.61-1.51,5.31h7.01c-.16-.49-.27-.91-.34-1.27-.13-.64-.12-1.32.05-2.03l1.01-4.39h5.15s.76-3.29.76-3.29h-5.15s.94-4.1.94-4.1h6.93Z"/>
  <path class="cls-1" d="M131.53,96.96h4.79s.75-3.25.75-3.25h-14.76s-.71,3.09-.71,3.09c0,0,0,0,0,0l-.04.16h4.41s-2.08,9.02-2.08,9.02c-.28,1.22-.83,3.27-1.66,6.16h6.91c-.3-.83-.45-1.31-.42-1.45-.09-.61.01-1.6.32-2.96l2.48-10.77Z"/>
  <path class="cls-1" d="M142.88,107.87l.32,4.27h6.71c-.39-1.43-.65-2.67-.78-3.71l-1.69-14.7h-6.29c.28.97.4,1.55.35,1.76-.04.17-.24.57-.6,1.2l-6.31,10.98c-.9,1.56-1.82,3.05-2.78,4.48h5.23c0-.07-.05-.23-.13-.49-.07-.21-.08-.44-.02-.66l1.65-3.12h4.35ZM142.34,100.65l.32,4.39h-2.65s2.32-4.39,2.32-4.39Z"/>
  <path class="cls-1" d="M94.71,107.87l.32,4.27h6.71c-.39-1.43-.65-2.67-.78-3.71l-1.69-14.7h-6.29c.28.97.4,1.55.35,1.76-.04.17-.24.57-.6,1.2l-6.31,10.98c-.9,1.56-1.83,3.05-2.78,4.48h5.23c0-.07-.05-.23-.13-.49-.07-.21-.07-.44-.02-.66l1.65-3.12h4.35ZM94.18,100.66l.32,4.39h-2.64s2.32-4.39,2.32-4.39Z"/>
</svg>