<?xml version="1.0" encoding="UTF-8"?>
<svg id="Layer_1" data-name="Layer 1" xmlns="http://www.w3.org/2000/svg" viewBox="0 0 215.29 176.94">
  <defs>
    <style>
      .cls-1, .cls-2 {
        fill-rule: evenodd;
      }

      .cls-1, .cls-3 {
        fill: #1d1d1b;
      }

      .cls-2 {
        fill: #e30613;
      }
    </style>
  </defs>
  <path class="cls-2" d="M51.01,68.35h11l4.19,15,4.2-15h10.96v24.65h-6.82v-18.8l-5.27,18.8h-6.18l-5.25-18.8v18.8h-6.82v-24.65ZM86.66,68.35h22.32v5.27h-13.95v3.92h12.93v5.03h-12.93v4.85h14.36v5.58h-22.73v-24.65ZM113.92,68.35h8.32v9.31l8.74-9.31h11.09l-9.85,9.26,10.3,15.39h-10.26l-5.69-10.12-4.33,4.12v6h-8.32v-24.65ZM161.88,88.94h-9.45l-1.36,4.06h-8.51l10.15-24.65h9.13l10.11,24.65h-8.73l-1.35-4.06ZM160.12,83.6l-2.95-8.86-2.96,8.86h5.91Z"/>
  <path class="cls-1" d="M162.55,104.38c0,.8-.22,1.55-.66,2.25-.45.7-1.04,1.24-1.81,1.64-.76.4-1.57.6-2.46.6s-1.69-.2-2.46-.6c-.76-.4-1.36-.95-1.8-1.64-.44-.7-.66-1.44-.66-2.25s.22-1.55.66-2.25c.44-.7,1.04-1.24,1.8-1.64.76-.4,1.58-.6,2.46-.6s1.7.2,2.46.6c.77.4,1.36.95,1.81,1.64.44.7.66,1.45.66,2.25M161.6,104.38c0-1-.38-1.85-1.16-2.56-.78-.71-1.71-1.06-2.81-1.06s-2.03.35-2.81,1.06c-.78.71-1.16,1.56-1.16,2.56s.39,1.85,1.16,2.56c.78.7,1.71,1.05,2.81,1.05s2.04-.35,2.81-1.05c.78-.71,1.16-1.56,1.16-2.56M155.4,101.97v4.81h1.31v-1.89c.07-.01.12-.02.16-.02.17,0,.34.09.51.27.18.18.51.73,1.01,1.65h1.54c-.56-.91-.84-1.38-.85-1.39-.15-.22-.29-.38-.42-.49-.1-.07-.25-.16-.45-.22.49-.11.85-.27,1.08-.51.23-.24.34-.51.34-.84,0-.41-.15-.74-.45-.99-.3-.24-.78-.37-1.45-.37h-2.35ZM156.7,104.01h.56c.38,0,.64-.06.8-.17.15-.11.23-.26.23-.43s-.07-.32-.22-.44c-.15-.11-.4-.17-.76-.17h-.62v1.2Z"/>
  <polygon class="cls-3" points="86.59 62.75 86.47 49.77 141.92 49.34 142.04 62.32 133.73 62.38 133.68 56.78 94.85 57.08 94.91 62.68 86.59 62.75"/>
  <polygon class="cls-3" points="142.05 111.3 86.6 111.3 86.6 97.74 94.91 97.74 94.91 103.92 133.73 103.92 133.73 97.74 142.05 97.74 142.05 111.3"/>
  <path class="cls-2" d="M50.73,117.18h3.79v3.57h4.16v-3.57h3.81v10.24h-3.81v-4.15h-4.16v4.15h-3.79v-10.24ZM72.58,125.74h-4.31l-.62,1.69h-3.88l4.63-10.24h4.16l4.61,10.24h-3.98l-.61-1.69ZM71.77,123.52l-1.34-3.68-1.35,3.68h2.69ZM78.37,117.18h3.79v7.73h5.94v2.52h-9.73v-10.24ZM97.38,125.74h-4.3l-.62,1.69h-3.87l4.62-10.24h4.16l4.6,10.24h-3.97l-.62-1.69ZM96.57,123.52l-1.34-3.68-1.35,3.68h2.69ZM103.17,117.18h3.79v7.73h5.94v2.52h-9.73v-10.24ZM120.35,117.18h9.39v2.21h-5.58v1.79h4.77v2.08h-4.77v4.18h-3.81v-10.24ZM131.3,122.31c0-1.67.56-2.97,1.68-3.9,1.12-.93,2.67-1.4,4.67-1.4s3.62.46,4.73,1.37c1.1.92,1.66,2.2,1.66,3.84,0,1.2-.24,2.18-.73,2.94-.48.77-1.18,1.36-2.1,1.79-.91.42-2.05.64-3.42.64s-2.53-.18-3.44-.55c-.91-.37-1.65-.95-2.21-1.75-.56-.79-.85-1.79-.85-2.99M135.1,122.32c0,1.03.23,1.78.69,2.22.46.45,1.09.68,1.89.68s1.45-.22,1.9-.66c.45-.45.67-1.24.67-2.38,0-.97-.24-1.67-.7-2.12-.47-.44-1.11-.66-1.9-.66s-1.39.23-1.85.68c-.47.45-.7,1.2-.7,2.24M145.61,122.31c0-1.67.56-2.97,1.68-3.9,1.12-.93,2.68-1.4,4.67-1.4s3.62.46,4.73,1.37c1.1.92,1.66,2.2,1.66,3.84,0,1.2-.24,2.18-.73,2.94-.48.77-1.18,1.36-2.09,1.79-.92.42-2.06.64-3.42.64s-2.53-.18-3.44-.55c-.91-.37-1.65-.95-2.21-1.75-.56-.79-.84-1.79-.84-2.99M149.4,122.32c0,1.03.23,1.78.69,2.22.46.45,1.1.68,1.89.68s1.45-.22,1.89-.66c.46-.45.68-1.24.68-2.38,0-.97-.23-1.67-.7-2.12-.47-.44-1.1-.66-1.91-.66-.76,0-1.38.23-1.85.68-.47.45-.7,1.2-.7,2.24M160.44,117.18h5.64c1.11,0,2.01.13,2.7.38.68.25,1.25.61,1.7,1.08.44.47.77,1.02.97,1.64.2.62.3,1.29.3,1.99,0,1.09-.15,1.94-.45,2.55-.3.6-.72,1.1-1.24,1.52-.54.41-1.1.67-1.71.81-.83.18-1.59.28-2.26.28h-5.64v-10.24ZM164.23,119.5v5.59h.93c.8,0,1.37-.07,1.7-.22.33-.15.59-.41.79-.77.19-.37.28-.96.28-1.78,0-1.08-.21-1.83-.64-2.23-.42-.4-1.13-.6-2.12-.6h-.95Z"/>
</svg>