<?xml version="1.0" encoding="UTF-8"?>
<svg id="Layer_1" data-name="Layer 1" xmlns="http://www.w3.org/2000/svg" viewBox="0 0 215.29 176.94">
  <defs>
    <style>
      .cls-1 {
        fill: #8ae773;
      }
    </style>
  </defs>
  <path class="cls-1" d="M103.97,79.22c-.16.3,0,1.27,1.17.45,1.65-1.15,4.58-4.14,4.07-8.12-.96-7.58-11.68-8.47-14.4-2.97-.16.33-.64.28-.73-.07-.25-1.06-1.45-1.67-2.75,1.48-1.49,3.62.26,7.49,1.91,9.35.33.37.23.94-.19,1.19-2.38,1.39-8.51,5.59-6.19,13.44,2.21,7.47,12.67,10,18.22,6.27.06-.04.13-.01.15.05.35.84,1.46,1.89,4.48.58,5.28-2.29,8.25-12.65-.36-22.16-.08-.09-.23-.06-.28.05-.65,1.68-2.36,3.07-8.01,4.23-9.75,2.01-7.68,12.66-.25,13.06,7.12.39,8.81-7.61,9.12-11.44,0-.1.15-.09.16,0,1.51,18.83-19.24,15.83-18.61,4.43.3-5.31,5.09-7.4,6.27-7.89.28-.12.79-.49.23-1-.52-.52-1.95-1.78-1.95-5.32,0-3.17,2.49-5.61,5.01-5.59,3.47.02,6.38,3.59,2.91,9.97"/>
  <polygon class="cls-1" points="46.88 111.86 46.88 109.91 44.39 109.91 44.39 111.86 43.59 111.86 43.59 107.15 44.39 107.15 44.39 109.19 46.88 109.19 46.88 107.15 47.67 107.15 47.67 111.86 46.88 111.86"/>
  <polygon class="cls-1" points="51.44 107.86 51.44 109.13 53.74 109.13 53.74 109.85 51.44 109.85 51.44 111.14 54.09 111.14 54.09 111.86 50.64 111.86 50.64 107.15 54.01 107.15 54.01 107.86 51.44 107.86"/>
  <path class="cls-1" d="M57.45,110.79l-.45,1.06h-.83l2.08-4.71h.81l2.06,4.71h-.85l-.45-1.06h-2.37ZM58.64,108l-.89,2.09h1.78l-.89-2.09Z"/>
  <polygon class="cls-1" points="66.32 111.14 66.32 111.86 63.49 111.86 63.49 107.15 64.28 107.15 64.28 111.14 66.32 111.14"/>
  <polygon class="cls-1" points="70.53 107.86 70.53 111.86 69.74 111.86 69.74 107.86 68.25 107.86 68.25 107.15 72.02 107.15 72.02 107.86 70.53 107.86"/>
  <polygon class="cls-1" points="77.73 111.86 77.73 109.91 75.23 109.91 75.23 111.86 74.44 111.86 74.44 107.15 75.23 107.15 75.23 109.19 77.73 109.19 77.73 107.15 78.52 107.15 78.52 111.86 77.73 111.86"/>
  <polygon class="cls-1" points="83.42 111.86 82.63 111.86 82.63 110.32 80.88 107.15 81.68 107.15 83.02 109.44 84.34 107.15 85.15 107.15 83.42 110.29 83.42 111.86"/>
  <polygon class="cls-1" points="90.04 107.86 90.04 109.22 92.18 109.22 92.18 109.93 90.04 109.93 90.04 111.86 89.24 111.86 89.24 107.15 92.4 107.15 92.4 107.86 90.04 107.86"/>
  <path class="cls-1" d="M99.44,109.5c0,1.34-1.09,2.39-2.5,2.39s-2.49-1.04-2.49-2.39,1.09-2.37,2.49-2.37,2.5,1.03,2.5,2.37M95.26,109.5c0,.93.77,1.67,1.69,1.67s1.67-.74,1.67-1.67-.75-1.66-1.67-1.66-1.69.73-1.69,1.66Z"/>
  <path class="cls-1" d="M106.62,109.5c0,1.34-1.09,2.39-2.5,2.39s-2.49-1.04-2.49-2.39,1.09-2.37,2.49-2.37,2.5,1.03,2.5,2.37M102.44,109.5c0,.93.77,1.67,1.69,1.67s1.67-.74,1.67-1.67-.75-1.66-1.67-1.66-1.69.73-1.69,1.66Z"/>
  <path class="cls-1" d="M111.14,107.15c1.41,0,2.43.99,2.43,2.35s-1.03,2.35-2.45,2.35h-1.91v-4.71h1.93ZM110,111.14h1.16c.91,0,1.61-.68,1.61-1.63s-.72-1.65-1.65-1.65h-1.12v3.28Z"/>
  <path class="cls-1" d="M118.55,110.79l-.45,1.06h-.83l2.08-4.71h.81l2.06,4.71h-.85l-.45-1.06h-2.37ZM119.74,108l-.89,2.09h1.77l-.89-2.09Z"/>
  <polygon class="cls-1" points="127.88 111.86 125.38 108.48 125.38 111.86 124.58 111.86 124.58 107.15 125.36 107.15 127.88 110.53 127.88 107.15 128.66 107.15 128.66 111.86 127.88 111.86"/>
  <path class="cls-1" d="M133.57,107.15c1.41,0,2.43.99,2.43,2.35s-1.03,2.35-2.45,2.35h-1.91v-4.71h1.93ZM132.44,111.14h1.16c.91,0,1.61-.68,1.61-1.63s-.72-1.65-1.65-1.65h-1.12v3.28Z"/>
  <path class="cls-1" d="M142.54,110.4c0,.95-.56,1.49-1.47,1.49-.56,0-1.04-.25-1.39-.68l.38-.6c.31.34.68.52,1,.52.42,0,.67-.26.67-.75v-2.51h-1.63v-.71h2.43v3.25Z"/>
  <path class="cls-1" d="M149.41,109.91c0,1.23-.77,1.98-2.04,1.98s-2.05-.75-2.05-1.98v-2.76h.79v2.76c0,.79.49,1.27,1.26,1.27s1.24-.47,1.24-1.27v-2.76h.79v2.76Z"/>
  <rect class="cls-1" x="152.28" y="107.15" width=".79" height="4.71"/>
  <path class="cls-1" d="M159.92,107.86l-.46.58c-.34-.37-.83-.6-1.31-.6-.94,0-1.68.73-1.68,1.65s.74,1.66,1.68,1.66c.47,0,.96-.21,1.31-.56l.47.52c-.48.47-1.16.77-1.82.77-1.38,0-2.45-1.04-2.45-2.39s1.08-2.37,2.48-2.37c.66,0,1.33.28,1.79.73"/>
  <polygon class="cls-1" points="163.26 107.86 163.26 109.13 165.56 109.13 165.56 109.85 163.26 109.85 163.26 111.14 165.91 111.14 165.91 111.86 162.47 111.86 162.47 107.15 165.83 107.15 165.83 107.86 163.26 107.86"/>
  <path class="cls-1" d="M171.81,107.6l-.33.7c-.51-.31-1.02-.44-1.38-.44-.46,0-.77.17-.77.49,0,1.03,2.54.48,2.54,2.17,0,.84-.74,1.36-1.77,1.36-.74,0-1.44-.3-1.92-.75l.34-.69c.48.44,1.09.69,1.59.69.55,0,.88-.21.88-.57,0-1.05-2.54-.46-2.54-2.14,0-.81.69-1.31,1.71-1.31.61,0,1.21.2,1.65.48"/>
  <path class="cls-1" d="M30.22,81.33c0-1.07-.89-1.95-1.98-1.95-.61,0-1.17.27-1.54.74l-.1.13-.15-.08c-.99-.54-2.12-.82-3.27-.82-3.88,0-7.03,3.15-7.03,7.03s3.15,7.01,7.03,7.03c.9,0,1.8-.18,2.66-.52l.42-.17-.16.42c-.32.84-.94,1.47-1.74,1.79-.8.32-1.69.29-2.45-.07-.27-.13-.55-.19-.84-.19-.23,0-.45.04-.67.12-.49.18-.89.54-1.11,1.02-.44.97,0,2.14.95,2.59.93.44,1.93.66,2.97.66,3.86,0,7-3.13,7-6.98v-10.76ZM23.19,89.26c-1.6,0-2.9-1.29-2.9-2.88s1.3-2.9,2.9-2.9,2.88,1.3,2.88,2.9-1.29,2.88-2.88,2.88Z"/>
  <path class="cls-1" d="M36.16,85.39c0-1.04.88-1.89,2-1.92,1.2-.03,2.13-.87,2.18-1.96.02-.56-.18-1.12-.55-1.52-.36-.39-.85-.61-1.37-.62-.42,0-1.73,0-2.9.6l-.12.06-.1-.09c-.37-.32-.82-.49-1.28-.49-1.06,0-1.92.86-1.92,1.92v9.77c0,1.14.89,2.04,2.03,2.04s2.03-.89,2.03-2.04v-5.76Z"/>
  <path class="cls-1" d="M54,85.5c-.44-3.5-3.43-6.15-6.95-6.15-2.85,0-5.38,1.68-6.45,4.28-.76,1.84-.73,4.03.08,5.71,1.21,2.51,3.79,4.07,6.74,4.07,1.4,0,2.76-.36,3.94-1.05.81-.48,1.09-1.56.61-2.39-.24-.4-.64-.7-1.09-.81-.44-.11-.88-.04-1.26.2-1.78.97-4.28.85-5.66-1.24l-.2-.3h7.87c.85,0,1.52-.24,1.93-.7.36-.4.51-.95.44-1.63M43.9,84.99l.06-.24c.25-1.08,1.5-2.24,3.07-2.24s2.81,1.14,3.07,2.24l.06.24h-6.25Z"/>
  <path class="cls-1" d="M69.11,85.5c-.44-3.5-3.43-6.15-6.95-6.15-2.85,0-5.38,1.68-6.45,4.28-.76,1.84-.73,4.03.08,5.71,1.21,2.51,3.79,4.07,6.74,4.07,1.4,0,2.76-.36,3.94-1.05.81-.48,1.09-1.56.61-2.39-.24-.4-.64-.7-1.09-.81-.44-.11-.88-.04-1.26.2-1.78.97-4.28.85-5.66-1.24l-.2-.3h7.87c.85,0,1.52-.24,1.93-.7.36-.4.51-.95.44-1.63M59.01,84.99l.06-.24c.26-1.08,1.5-2.24,3.07-2.24s2.81,1.14,3.07,2.24l.06.24h-6.25Z"/>
  <path class="cls-1" d="M82.2,85.34c0-3.32-2.7-6.02-6.02-6.02-.92,0-1.84.21-2.65.6l-.11.05-.09-.07c-.37-.28-.81-.44-1.24-.44-1.08,0-1.92.86-1.92,1.95v9.74c0,1.12.91,2.04,2.04,2.04s2.04-.91,2.04-2.04v-5.82c0-1.06.87-1.92,1.94-1.92s1.92.84,1.92,1.92v5.82c0,1.1.95,2.04,2.06,2.04s2.04-.91,2.04-2.04v-5.82Z"/>
  <path class="cls-1" d="M126.17,79.24c-1.18,0-2.37.3-3.44.88l-.13.07-.1-.11c-.38-.4-.87-.61-1.44-.61-1.04,0-1.92.88-1.92,1.92v14.28c0,1.04.82,1.9,1.88,1.95h.19c1.12,0,2.04-.91,2.04-2.03v-2.91l.27.11c.87.35,1.76.52,2.67.52,3.88,0,7.03-3.16,7.03-7.03s-3.15-7.03-7.03-7.03M126.17,89.2c-1.65,0-2.93-1.29-2.93-2.93s1.29-2.93,2.93-2.93,2.93,1.29,2.93,2.93-1.29,2.93-2.93,2.93Z"/>
  <path class="cls-1" d="M138.43,85.39c0-1.04.88-1.89,2-1.92,1.2-.03,2.13-.87,2.18-1.96.02-.56-.18-1.12-.55-1.52-.36-.39-.85-.61-1.37-.62-.42,0-1.73,0-2.9.6l-.12.06-.1-.09c-.37-.32-.82-.49-1.29-.49-1.06,0-1.92.86-1.92,1.92v9.77c0,1.14.89,2.04,2.04,2.04s2.03-.89,2.03-2.04v-5.76Z"/>
  <path class="cls-1" d="M149.57,79.35c-3.88,0-7.03,3.15-7.03,7.03s3.16,7.03,7.03,7.03,7.03-3.16,7.03-7.03-3.15-7.03-7.03-7.03M149.57,89.31c-1.64,0-2.93-1.29-2.93-2.93s1.29-2.93,2.93-2.93,2.93,1.29,2.93,2.93-1.29,2.93-2.93,2.93Z"/>
  <path class="cls-1" d="M163.72,89.06h-.42c-.95,0-1.38-.79-1.38-1.58v-4.49h2.26c.98,0,1.78-.79,1.78-1.75s-.78-1.78-1.78-1.78h-2.26v-2.42c0-1.14-.92-2.06-2.06-2.06s-2.07.93-2.07,2.06v10.45c0,3.25,2.37,5.71,5.51,5.71h.42c1.14,0,2.06-.92,2.06-2.06s-.93-2.06-2.06-2.06"/>
  <path class="cls-1" d="M180.23,85.5c-.44-3.5-3.43-6.15-6.95-6.15-2.85,0-5.38,1.68-6.45,4.28-.76,1.84-.74,4.03.08,5.71,1.21,2.51,3.79,4.07,6.74,4.07,1.4,0,2.76-.36,3.94-1.05.81-.48,1.09-1.56.61-2.39-.24-.4-.64-.7-1.09-.81-.44-.11-.88-.04-1.26.2-1.77.97-4.28.85-5.66-1.24l-.2-.3h7.87c.85,0,1.52-.24,1.93-.7.36-.4.51-.95.44-1.63M170.12,84.99l.06-.24c.25-1.08,1.5-2.24,3.07-2.24s2.81,1.14,3.07,2.24l.06.24h-6.25Z"/>
  <path class="cls-1" d="M185.8,81.36c0-1.14-.93-2.06-2.06-2.06s-2.06.92-2.06,2.06v9.77c0,1.14.93,2.06,2.06,2.06s2.06-.93,2.06-2.06v-9.77Z"/>
  <path class="cls-1" d="M183.73,78.28c.95,0,1.72-.79,1.72-1.75s-.79-1.72-1.72-1.72-1.75.77-1.75,1.72.79,1.75,1.75,1.75"/>
  <path class="cls-1" d="M199.94,85.34c0-3.32-2.7-6.02-6.02-6.02-.92,0-1.84.21-2.65.6l-.11.05-.09-.07c-.37-.28-.81-.44-1.24-.44-1.08,0-1.92.86-1.92,1.95v9.74c0,1.12.91,2.04,2.04,2.04s2.04-.91,2.04-2.04v-5.82c0-1.06.87-1.92,1.95-1.92s1.92.84,1.92,1.92v5.82c0,1.1.95,2.04,2.07,2.04s2.04-.91,2.04-2.04v-5.82Z"/>
</svg>